<svg width="202" height="227" viewBox="0 0 202 227" fill="none" xmlns="http://www.w3.org/2000/svg">
<g id="CardCompetence3">
<g id="Rectangle 27" filter="url(#filter0_d_103_179)">
<rect width="194" height="219" rx="7" fill="#40B3A2"/>
</g>
<path id="NextJs" d="M70.0653 167.545V185H67.2528L59.0284 173.111H58.8835V185H55.7216V167.545H58.5511L66.767 179.443H66.9205V167.545H70.0653ZM79.1697 185.256C77.8572 185.256 76.7237 184.983 75.7692 184.438C74.8203 183.886 74.0902 183.108 73.5788 182.102C73.0675 181.091 72.8118 179.901 72.8118 178.531C72.8118 177.185 73.0675 176.003 73.5788 174.986C74.0959 173.963 74.8175 173.168 75.7436 172.599C76.6697 172.026 77.7578 171.739 79.0078 171.739C79.8146 171.739 80.576 171.869 81.2919 172.131C82.0135 172.386 82.6499 172.784 83.201 173.324C83.7578 173.864 84.1953 174.551 84.5135 175.386C84.8317 176.216 84.9908 177.205 84.9908 178.352V179.298H74.2607V177.219H82.0334C82.0277 176.628 81.8999 176.102 81.6499 175.642C81.3999 175.176 81.0504 174.81 80.6016 174.543C80.1584 174.276 79.6413 174.142 79.0504 174.142C78.4197 174.142 77.8658 174.295 77.3885 174.602C76.9112 174.903 76.5391 175.301 76.272 175.795C76.0107 176.284 75.8771 176.821 75.8714 177.406V179.222C75.8714 179.983 76.0107 180.636 76.2891 181.182C76.5675 181.722 76.9567 182.136 77.4567 182.426C77.9567 182.71 78.5419 182.852 79.2124 182.852C79.6612 182.852 80.0675 182.79 80.4311 182.665C80.7947 182.534 81.1101 182.344 81.3771 182.094C81.6442 181.844 81.8459 181.534 81.9822 181.165L84.8629 181.489C84.6811 182.25 84.3345 182.915 83.8232 183.483C83.3175 184.045 82.6697 184.483 81.88 184.795C81.0902 185.102 80.1868 185.256 79.1697 185.256ZM89.8423 171.909L92.4844 176.741L95.169 171.909H98.4332L94.4872 178.455L98.5014 185H95.2543L92.4844 180.287L89.7401 185H86.4673L90.456 178.455L86.5696 171.909H89.8423ZM107.357 171.909V174.295H99.831V171.909H107.357ZM101.689 168.773H104.774V181.062C104.774 181.477 104.837 181.795 104.962 182.017C105.092 182.233 105.263 182.381 105.473 182.46C105.683 182.54 105.916 182.58 106.172 182.58C106.365 182.58 106.541 182.565 106.7 182.537C106.865 182.509 106.99 182.483 107.075 182.46L107.595 184.872C107.43 184.929 107.195 184.991 106.888 185.06C106.587 185.128 106.217 185.168 105.78 185.179C105.007 185.202 104.311 185.085 103.692 184.83C103.072 184.568 102.581 184.165 102.217 183.619C101.859 183.074 101.683 182.392 101.689 181.574V168.773ZM116.96 167.545H120.096V179.818C120.09 180.943 119.852 181.912 119.38 182.724C118.908 183.531 118.249 184.153 117.403 184.591C116.562 185.023 115.582 185.239 114.462 185.239C113.44 185.239 112.519 185.057 111.701 184.693C110.888 184.324 110.244 183.778 109.766 183.057C109.289 182.335 109.05 181.437 109.05 180.364H112.195C112.201 180.835 112.303 181.241 112.502 181.582C112.707 181.923 112.988 182.185 113.346 182.366C113.704 182.548 114.116 182.639 114.582 182.639C115.087 182.639 115.516 182.534 115.869 182.324C116.221 182.108 116.488 181.79 116.67 181.369C116.857 180.949 116.954 180.432 116.96 179.818V167.545ZM133.737 175.369L130.924 175.676C130.844 175.392 130.705 175.125 130.506 174.875C130.313 174.625 130.052 174.423 129.722 174.27C129.393 174.116 128.989 174.04 128.512 174.04C127.87 174.04 127.33 174.179 126.893 174.457C126.461 174.736 126.248 175.097 126.254 175.54C126.248 175.92 126.387 176.23 126.671 176.469C126.961 176.707 127.438 176.903 128.103 177.057L130.336 177.534C131.575 177.801 132.495 178.224 133.097 178.804C133.705 179.384 134.012 180.142 134.018 181.08C134.012 181.903 133.771 182.631 133.293 183.261C132.822 183.886 132.165 184.375 131.325 184.727C130.484 185.08 129.518 185.256 128.427 185.256C126.825 185.256 125.535 184.92 124.558 184.25C123.58 183.574 122.998 182.634 122.81 181.429L125.819 181.139C125.955 181.73 126.245 182.176 126.688 182.477C127.131 182.778 127.708 182.929 128.418 182.929C129.151 182.929 129.739 182.778 130.183 182.477C130.631 182.176 130.856 181.804 130.856 181.361C130.856 180.986 130.711 180.676 130.421 180.432C130.137 180.187 129.694 180 129.092 179.869L126.859 179.401C125.603 179.139 124.674 178.699 124.072 178.08C123.469 177.455 123.171 176.665 123.177 175.71C123.171 174.903 123.39 174.205 123.833 173.614C124.282 173.017 124.904 172.557 125.7 172.233C126.501 171.903 127.424 171.739 128.469 171.739C130.004 171.739 131.211 172.065 132.092 172.719C132.978 173.372 133.526 174.256 133.737 175.369Z" fill="white"/>
<g id="logo">
<g id="Ellipse" filter="url(#filter1_d_103_179)">
<circle cx="98.5" cy="76.5" r="50.5" fill="black"/>
</g>
<g id="N">
<path d="M78.0755 56.0757H85.2577V96.9246H78.0755V56.0757Z" fill="white"/>
<path d="M85.2577 65.3114V56.0757H86.6044L131.044 113.742L126.107 118.022L85.2577 65.3114Z" fill="url(#paint0_linear_103_179)"/>
<path d="M112.191 56.0757H119.373V85.7024H112.191V56.0757Z" fill="url(#paint1_linear_103_179)"/>
</g>
</g>
</g>
<defs>
<filter id="filter0_d_103_179" x="0" y="0" width="202" height="227" filterUnits="userSpaceOnUse" color-interpolation-filters="sRGB">
<feFlood flood-opacity="0" result="BackgroundImageFix"/>
<feColorMatrix in="SourceAlpha" type="matrix" values="0 0 0 0 0 0 0 0 0 0 0 0 0 0 0 0 0 0 127 0" result="hardAlpha"/>
<feOffset dx="4" dy="4"/>
<feGaussianBlur stdDeviation="2"/>
<feComposite in2="hardAlpha" operator="out"/>
<feColorMatrix type="matrix" values="0 0 0 0 0.378229 0 0 0 0 0.378229 0 0 0 0 0.378229 0 0 0 0.25 0"/>
<feBlend mode="normal" in2="BackgroundImageFix" result="effect1_dropShadow_103_179"/>
<feBlend mode="normal" in="SourceGraphic" in2="effect1_dropShadow_103_179" result="shape"/>
</filter>
<filter id="filter1_d_103_179" x="45" y="23" width="111" height="111" filterUnits="userSpaceOnUse" color-interpolation-filters="sRGB">
<feFlood flood-opacity="0" result="BackgroundImageFix"/>
<feColorMatrix in="SourceAlpha" type="matrix" values="0 0 0 0 0 0 0 0 0 0 0 0 0 0 0 0 0 0 127 0" result="hardAlpha"/>
<feOffset dx="2" dy="2"/>
<feGaussianBlur stdDeviation="2.5"/>
<feComposite in2="hardAlpha" operator="out"/>
<feColorMatrix type="matrix" values="0 0 0 0 0 0 0 0 0 0 0 0 0 0 0 0 0 0 0.25 0"/>
<feBlend mode="normal" in2="BackgroundImageFix" result="effect1_dropShadow_103_179"/>
<feBlend mode="normal" in="SourceGraphic" in2="effect1_dropShadow_103_179" result="shape"/>
</filter>
<linearGradient id="paint0_linear_103_179" x1="78.0755" y1="60.1157" x2="119.423" y2="122.076" gradientUnits="userSpaceOnUse">
<stop stop-color="white"/>
<stop offset="1"/>
</linearGradient>
<linearGradient id="paint1_linear_103_179" x1="115.782" y1="56.0757" x2="115.782" y2="85.7024" gradientUnits="userSpaceOnUse">
<stop stop-color="white"/>
<stop offset="1"/>
</linearGradient>
</defs>
</svg>
