<svg width="188" height="211" viewBox="0 0 188 211" fill="none" xmlns="http://www.w3.org/2000/svg">
    <g id="CardCompetence1">
        <g id="Rectangle 27" filter="url(#filter0_d_103_191)">
            <rect width="179.826" height="203" rx="7" fill="#40B3A2" />
        </g>
        <path id="Angular"
            d="M46.9631 175H43.5881L49.733 157.545H53.6364L59.7898 175H56.4148L51.7528 161.125H51.6165L46.9631 175ZM47.0739 168.156H56.2784V170.696H47.0739V168.156ZM65.0376 167.33V175H61.9524V161.909H64.9013V164.134H65.0547C65.3558 163.401 65.8359 162.818 66.495 162.386C67.1598 161.955 67.9808 161.739 68.9581 161.739C69.8615 161.739 70.6484 161.932 71.3189 162.318C71.995 162.705 72.5178 163.264 72.8871 163.997C73.2621 164.73 73.4467 165.619 73.4411 166.665V175H70.3558V167.142C70.3558 166.267 70.1286 165.582 69.674 165.088C69.2251 164.594 68.603 164.347 67.8075 164.347C67.2678 164.347 66.7876 164.466 66.3672 164.705C65.9524 164.937 65.6257 165.276 65.3871 165.719C65.1541 166.162 65.0376 166.699 65.0376 167.33ZM82.2706 180.182C81.1626 180.182 80.2109 180.031 79.4155 179.73C78.62 179.435 77.9808 179.037 77.4979 178.537C77.0149 178.037 76.6797 177.483 76.4922 176.875L79.2706 176.202C79.3956 176.457 79.5774 176.71 79.8161 176.96C80.0547 177.216 80.3757 177.426 80.7791 177.591C81.1882 177.761 81.7024 177.847 82.3217 177.847C83.1967 177.847 83.9212 177.634 84.495 177.207C85.0689 176.787 85.3558 176.094 85.3558 175.128V172.648H85.2024C85.0433 172.966 84.8104 173.293 84.5036 173.628C84.2024 173.963 83.8018 174.244 83.3018 174.472C82.8075 174.699 82.1854 174.812 81.4354 174.812C80.4297 174.812 79.5178 174.577 78.6996 174.105C77.8871 173.628 77.2393 172.918 76.7564 171.974C76.2791 171.026 76.0405 169.838 76.0405 168.412C76.0405 166.974 76.2791 165.761 76.7564 164.773C77.2393 163.778 77.8899 163.026 78.7081 162.514C79.5263 161.997 80.4382 161.739 81.4439 161.739C82.2109 161.739 82.8416 161.869 83.3359 162.131C83.8359 162.386 84.2337 162.696 84.5291 163.06C84.8246 163.418 85.049 163.756 85.2024 164.074H85.3729V161.909H88.4155V175.213C88.4155 176.332 88.1484 177.259 87.6143 177.991C87.0803 178.724 86.3501 179.273 85.424 179.636C84.4979 180 83.4467 180.182 82.2706 180.182ZM82.2962 172.392C82.9496 172.392 83.5064 172.233 83.9666 171.915C84.4268 171.597 84.7763 171.139 85.0149 170.543C85.2536 169.946 85.3729 169.23 85.3729 168.395C85.3729 167.571 85.2536 166.849 85.0149 166.23C84.782 165.611 84.4354 165.131 83.9751 164.79C83.5206 164.443 82.9609 164.27 82.2962 164.27C81.6087 164.27 81.0348 164.449 80.5746 164.807C80.1143 165.165 79.7678 165.656 79.5348 166.281C79.3018 166.901 79.1854 167.605 79.1854 168.395C79.1854 169.196 79.3018 169.898 79.5348 170.5C79.7734 171.097 80.1229 171.562 80.5831 171.898C81.049 172.227 81.62 172.392 82.2962 172.392ZM99.9212 169.494V161.909H103.006V175H100.015V172.673H99.8786C99.5831 173.406 99.0973 174.006 98.4212 174.472C97.7507 174.937 96.924 175.17 95.9411 175.17C95.0831 175.17 94.3246 174.98 93.6655 174.599C93.0121 174.213 92.5007 173.653 92.1314 172.92C91.7621 172.182 91.5774 171.29 91.5774 170.244V161.909H94.6626V169.767C94.6626 170.597 94.8899 171.256 95.3445 171.744C95.799 172.233 96.3956 172.477 97.1342 172.477C97.5888 172.477 98.0291 172.366 98.4553 172.145C98.8814 171.923 99.2308 171.594 99.5036 171.156C99.782 170.713 99.9212 170.159 99.9212 169.494ZM109.264 157.545V175H106.179V157.545H109.264ZM116.204 175.264C115.374 175.264 114.627 175.116 113.962 174.821C113.303 174.52 112.781 174.077 112.394 173.491C112.013 172.906 111.823 172.185 111.823 171.327C111.823 170.588 111.96 169.977 112.232 169.494C112.505 169.011 112.877 168.625 113.349 168.335C113.82 168.045 114.352 167.827 114.942 167.679C115.539 167.526 116.156 167.415 116.792 167.347C117.559 167.267 118.181 167.196 118.658 167.134C119.136 167.065 119.482 166.963 119.698 166.827C119.92 166.685 120.031 166.466 120.031 166.17V166.119C120.031 165.477 119.84 164.98 119.46 164.628C119.079 164.276 118.531 164.099 117.815 164.099C117.059 164.099 116.46 164.264 116.016 164.594C115.579 164.923 115.283 165.312 115.13 165.761L112.249 165.352C112.477 164.557 112.852 163.892 113.374 163.358C113.897 162.818 114.536 162.415 115.292 162.148C116.048 161.875 116.883 161.739 117.798 161.739C118.428 161.739 119.056 161.812 119.681 161.96C120.306 162.108 120.877 162.352 121.394 162.693C121.911 163.028 122.326 163.486 122.638 164.065C122.957 164.645 123.116 165.369 123.116 166.239V175H120.15V173.202H120.048C119.86 173.565 119.596 173.906 119.255 174.224C118.92 174.537 118.496 174.79 117.985 174.983C117.479 175.17 116.886 175.264 116.204 175.264ZM117.005 172.997C117.624 172.997 118.161 172.875 118.616 172.631C119.07 172.381 119.42 172.051 119.664 171.642C119.914 171.233 120.039 170.787 120.039 170.304V168.761C119.942 168.841 119.778 168.915 119.545 168.983C119.317 169.051 119.062 169.111 118.778 169.162C118.494 169.213 118.212 169.259 117.934 169.298C117.656 169.338 117.414 169.372 117.21 169.401C116.749 169.463 116.337 169.565 115.974 169.707C115.61 169.849 115.323 170.048 115.113 170.304C114.903 170.554 114.798 170.878 114.798 171.276C114.798 171.844 115.005 172.273 115.42 172.562C115.835 172.852 116.363 172.997 117.005 172.997ZM126.218 175V161.909H129.21V164.091H129.346C129.585 163.335 129.994 162.753 130.573 162.344C131.158 161.929 131.826 161.722 132.576 161.722C132.746 161.722 132.937 161.73 133.147 161.747C133.363 161.759 133.542 161.778 133.684 161.807V164.645C133.553 164.599 133.346 164.56 133.062 164.526C132.783 164.486 132.513 164.466 132.252 164.466C131.69 164.466 131.184 164.588 130.735 164.832C130.292 165.071 129.942 165.403 129.687 165.83C129.431 166.256 129.303 166.747 129.303 167.304V175H126.218Z"
            fill="white" />
        <g id="AngularLogo" filter="url(#filter1_d_103_191)">
            <path id="Vector 50"
                d="M133.8 103.938L94.4842 126.268L55.3853 103.938L48 43.3781L94.4842 27L141.62 43.3781L133.8 103.938Z"
                fill="black" />
            <path id="Vector 49"
                d="M76.1946 102.33H65.6379L94.18 38.5122L124.243 102.33H113.686L107.734 87.994H81.7553L76.1946 102.33Z"
                fill="white" />
            <path id="Vector 51" d="M85.8824 79.1318L94.3539 59.061L103.955 79.1318H85.8824Z"
                fill="black" />
        </g>
    </g>
    <defs>
        <filter id="filter0_d_103_191" x="0" y="0" width="187.826" height="211"
            filterUnits="userSpaceOnUse" color-interpolation-filters="sRGB">
            <feFlood flood-opacity="0" result="BackgroundImageFix" />
            <feColorMatrix in="SourceAlpha" type="matrix"
                values="0 0 0 0 0 0 0 0 0 0 0 0 0 0 0 0 0 0 127 0" result="hardAlpha" />
            <feOffset dx="4" dy="4" />
            <feGaussianBlur stdDeviation="2" />
            <feComposite in2="hardAlpha" operator="out" />
            <feColorMatrix type="matrix"
                values="0 0 0 0 0.378229 0 0 0 0 0.378229 0 0 0 0 0.378229 0 0 0 0.25 0" />
            <feBlend mode="normal" in2="BackgroundImageFix" result="effect1_dropShadow_103_191" />
            <feBlend mode="normal" in="SourceGraphic" in2="effect1_dropShadow_103_191"
                result="shape" />
        </filter>
        <filter id="filter1_d_103_191" x="44" y="27" width="101.62" height="107.268"
            filterUnits="userSpaceOnUse" color-interpolation-filters="sRGB">
            <feFlood flood-opacity="0" result="BackgroundImageFix" />
            <feColorMatrix in="SourceAlpha" type="matrix"
                values="0 0 0 0 0 0 0 0 0 0 0 0 0 0 0 0 0 0 127 0" result="hardAlpha" />
            <feOffset dy="4" />
            <feGaussianBlur stdDeviation="2" />
            <feComposite in2="hardAlpha" operator="out" />
            <feColorMatrix type="matrix" values="0 0 0 0 0 0 0 0 0 0 0 0 0 0 0 0 0 0 0.25 0" />
            <feBlend mode="normal" in2="BackgroundImageFix" result="effect1_dropShadow_103_191" />
            <feBlend mode="normal" in="SourceGraphic" in2="effect1_dropShadow_103_191"
                result="shape" />
        </filter>
    </defs>
</svg>