<svg width="188" height="211" viewBox="0 0 188 211" fill="none" xmlns="http://www.w3.org/2000/svg">
    <g id="CardCompetence2">
        <g id="Rectangle 27" filter="url(#filter0_d_103_185)">
            <rect width="179.826" height="203" rx="7" fill="#40B3A2" />
        </g>
        <path id="React Native"
            d="M18.2685 176V158.545H24.8139C26.1548 158.545 27.2798 158.778 28.1889 159.244C29.1037 159.71 29.794 160.364 30.2599 161.205C30.7315 162.04 30.9673 163.014 30.9673 164.128C30.9673 165.247 30.7287 166.219 30.2514 167.043C29.7798 167.861 29.0838 168.494 28.1634 168.943C27.2429 169.386 26.1122 169.608 24.7713 169.608H20.1094V166.983H24.3452C25.1293 166.983 25.7713 166.875 26.2713 166.659C26.7713 166.437 27.1406 166.116 27.3793 165.696C27.6236 165.27 27.7457 164.747 27.7457 164.128C27.7457 163.509 27.6236 162.98 27.3793 162.543C27.1349 162.099 26.7628 161.764 26.2628 161.537C25.7628 161.304 25.1179 161.188 24.3281 161.188H21.4304V176H18.2685ZM27.2855 168.091L31.6065 176H28.0781L23.8338 168.091H27.2855ZM39.3494 176.256C38.0369 176.256 36.9034 175.983 35.9489 175.438C35 174.886 34.2699 174.108 33.7585 173.102C33.2472 172.091 32.9915 170.901 32.9915 169.531C32.9915 168.185 33.2472 167.003 33.7585 165.986C34.2756 164.963 34.9972 164.168 35.9233 163.599C36.8494 163.026 37.9375 162.739 39.1875 162.739C39.9943 162.739 40.7557 162.869 41.4716 163.131C42.1932 163.386 42.8295 163.784 43.3807 164.324C43.9375 164.864 44.375 165.551 44.6932 166.386C45.0114 167.216 45.1705 168.205 45.1705 169.352V170.298H34.4403V168.219H42.2131C42.2074 167.628 42.0795 167.102 41.8295 166.642C41.5795 166.176 41.2301 165.81 40.7812 165.543C40.3381 165.276 39.821 165.142 39.2301 165.142C38.5994 165.142 38.0455 165.295 37.5682 165.602C37.0909 165.903 36.7188 166.301 36.4517 166.795C36.1903 167.284 36.0568 167.821 36.0511 168.406V170.222C36.0511 170.983 36.1903 171.636 36.4688 172.182C36.7472 172.722 37.1364 173.136 37.6364 173.426C38.1364 173.71 38.7216 173.852 39.392 173.852C39.8409 173.852 40.2472 173.79 40.6108 173.665C40.9744 173.534 41.2898 173.344 41.5568 173.094C41.8239 172.844 42.0256 172.534 42.1619 172.165L45.0426 172.489C44.8608 173.25 44.5142 173.915 44.0028 174.483C43.4972 175.045 42.8494 175.483 42.0597 175.795C41.2699 176.102 40.3665 176.256 39.3494 176.256ZM51.5476 176.264C50.718 176.264 49.9709 176.116 49.3061 175.821C48.647 175.52 48.1243 175.077 47.7379 174.491C47.3572 173.906 47.1669 173.185 47.1669 172.327C47.1669 171.588 47.3033 170.977 47.576 170.494C47.8487 170.011 48.2209 169.625 48.6925 169.335C49.1641 169.045 49.6953 168.827 50.2862 168.679C50.8828 168.526 51.4993 168.415 52.1357 168.347C52.9027 168.267 53.5249 168.196 54.0021 168.134C54.4794 168.065 54.826 167.963 55.0419 167.827C55.2635 167.685 55.3743 167.466 55.3743 167.17V167.119C55.3743 166.477 55.1839 165.98 54.8033 165.628C54.4226 165.276 53.8743 165.099 53.1584 165.099C52.4027 165.099 51.8033 165.264 51.3601 165.594C50.9226 165.923 50.6271 166.312 50.4737 166.761L47.593 166.352C47.8203 165.557 48.1953 164.892 48.718 164.358C49.2408 163.818 49.88 163.415 50.6357 163.148C51.3913 162.875 52.2266 162.739 53.1413 162.739C53.772 162.739 54.3999 162.812 55.0249 162.96C55.6499 163.108 56.2209 163.352 56.7379 163.693C57.255 164.028 57.6697 164.486 57.9822 165.065C58.3004 165.645 58.4595 166.369 58.4595 167.239V176H55.4936V174.202H55.3913C55.2038 174.565 54.9396 174.906 54.5987 175.224C54.2635 175.537 53.8402 175.79 53.3288 175.983C52.8232 176.17 52.2294 176.264 51.5476 176.264ZM52.3487 173.997C52.968 173.997 53.505 173.875 53.9595 173.631C54.4141 173.381 54.7635 173.051 55.0078 172.642C55.2578 172.233 55.3828 171.787 55.3828 171.304V169.761C55.2862 169.841 55.1214 169.915 54.8885 169.983C54.6612 170.051 54.4055 170.111 54.1214 170.162C53.8374 170.213 53.5561 170.259 53.2777 170.298C52.9993 170.338 52.7578 170.372 52.5533 170.401C52.093 170.463 51.6811 170.565 51.3175 170.707C50.9538 170.849 50.6669 171.048 50.4567 171.304C50.2464 171.554 50.1413 171.878 50.1413 172.276C50.1413 172.844 50.3487 173.273 50.7635 173.562C51.1783 173.852 51.7067 173.997 52.3487 173.997ZM67.272 176.256C65.9652 176.256 64.843 175.969 63.9055 175.395C62.9737 174.821 62.255 174.028 61.7493 173.017C61.2493 172 60.9993 170.83 60.9993 169.506C60.9993 168.176 61.255 167.003 61.7663 165.986C62.2777 164.963 62.9993 164.168 63.9311 163.599C64.8686 163.026 65.9766 162.739 67.255 162.739C68.3175 162.739 69.2578 162.935 70.076 163.327C70.8999 163.713 71.5561 164.261 72.0447 164.972C72.5334 165.676 72.8118 166.5 72.88 167.443H69.9311C69.8118 166.812 69.5277 166.287 69.0788 165.866C68.6357 165.44 68.0419 165.227 67.2976 165.227C66.6669 165.227 66.1129 165.398 65.6357 165.739C65.1584 166.074 64.7862 166.557 64.5192 167.188C64.2578 167.818 64.1271 168.574 64.1271 169.455C64.1271 170.347 64.2578 171.114 64.5192 171.756C64.7805 172.392 65.147 172.884 65.6186 173.23C66.0959 173.571 66.6555 173.741 67.2976 173.741C67.7521 173.741 68.1584 173.656 68.5163 173.486C68.88 173.31 69.1839 173.057 69.4283 172.727C69.6726 172.398 69.8402 171.997 69.9311 171.526H72.88C72.8061 172.452 72.5334 173.273 72.0618 173.989C71.5902 174.699 70.9482 175.256 70.1357 175.659C69.3232 176.057 68.3686 176.256 67.272 176.256ZM81.9503 162.909V165.295H74.4247V162.909H81.9503ZM76.2827 159.773H79.3679V172.062C79.3679 172.477 79.4304 172.795 79.5554 173.017C79.6861 173.233 79.8565 173.381 80.0668 173.46C80.277 173.54 80.5099 173.58 80.7656 173.58C80.9588 173.58 81.1349 173.565 81.294 173.537C81.4588 173.509 81.5838 173.483 81.669 173.46L82.1889 175.872C82.0241 175.929 81.7884 175.991 81.4815 176.06C81.1804 176.128 80.8111 176.168 80.3736 176.179C79.6009 176.202 78.9048 176.085 78.2855 175.83C77.6662 175.568 77.1747 175.165 76.8111 174.619C76.4531 174.074 76.277 173.392 76.2827 172.574V159.773ZM104.964 158.545V176H102.151L93.9268 164.111H93.782V176H90.62V158.545H93.4496L101.665 170.443H101.819V158.545H104.964ZM112.04 176.264C111.21 176.264 110.463 176.116 109.798 175.821C109.139 175.52 108.616 175.077 108.23 174.491C107.849 173.906 107.659 173.185 107.659 172.327C107.659 171.588 107.795 170.977 108.068 170.494C108.341 170.011 108.713 169.625 109.185 169.335C109.656 169.045 110.188 168.827 110.778 168.679C111.375 168.526 111.991 168.415 112.628 168.347C113.395 168.267 114.017 168.196 114.494 168.134C114.972 168.065 115.318 167.963 115.534 167.827C115.756 167.685 115.866 167.466 115.866 167.17V167.119C115.866 166.477 115.676 165.98 115.295 165.628C114.915 165.276 114.366 165.099 113.651 165.099C112.895 165.099 112.295 165.264 111.852 165.594C111.415 165.923 111.119 166.312 110.966 166.761L108.085 166.352C108.313 165.557 108.688 164.892 109.21 164.358C109.733 163.818 110.372 163.415 111.128 163.148C111.884 162.875 112.719 162.739 113.634 162.739C114.264 162.739 114.892 162.812 115.517 162.96C116.142 163.108 116.713 163.352 117.23 163.693C117.747 164.028 118.162 164.486 118.474 165.065C118.793 165.645 118.952 166.369 118.952 167.239V176H115.986V174.202H115.884C115.696 174.565 115.432 174.906 115.091 175.224C114.756 175.537 114.332 175.79 113.821 175.983C113.315 176.17 112.722 176.264 112.04 176.264ZM112.841 173.997C113.46 173.997 113.997 173.875 114.452 173.631C114.906 173.381 115.256 173.051 115.5 172.642C115.75 172.233 115.875 171.787 115.875 171.304V169.761C115.778 169.841 115.614 169.915 115.381 169.983C115.153 170.051 114.898 170.111 114.614 170.162C114.33 170.213 114.048 170.259 113.77 170.298C113.491 170.338 113.25 170.372 113.045 170.401C112.585 170.463 112.173 170.565 111.81 170.707C111.446 170.849 111.159 171.048 110.949 171.304C110.739 171.554 110.634 171.878 110.634 172.276C110.634 172.844 110.841 173.273 111.256 173.562C111.67 173.852 112.199 173.997 112.841 173.997ZM128.591 162.909V165.295H121.065V162.909H128.591ZM122.923 159.773H126.009V172.062C126.009 172.477 126.071 172.795 126.196 173.017C126.327 173.233 126.497 173.381 126.707 173.46C126.918 173.54 127.151 173.58 127.406 173.58C127.599 173.58 127.776 173.565 127.935 173.537C128.099 173.509 128.224 173.483 128.31 173.46L128.83 175.872C128.665 175.929 128.429 175.991 128.122 176.06C127.821 176.128 127.452 176.168 127.014 176.179C126.241 176.202 125.545 176.085 124.926 175.83C124.307 175.568 123.815 175.165 123.452 174.619C123.094 174.074 122.918 173.392 122.923 172.574V159.773ZM131.171 176V162.909H134.256V176H131.171ZM132.722 161.051C132.234 161.051 131.813 160.889 131.461 160.565C131.109 160.236 130.933 159.841 130.933 159.381C130.933 158.915 131.109 158.52 131.461 158.196C131.813 157.866 132.234 157.702 132.722 157.702C133.217 157.702 133.637 157.866 133.984 158.196C134.336 158.52 134.512 158.915 134.512 159.381C134.512 159.841 134.336 160.236 133.984 160.565C133.637 160.889 133.217 161.051 132.722 161.051ZM149.122 162.909L144.46 176H141.051L136.389 162.909H139.679L142.688 172.634H142.824L145.841 162.909H149.122ZM156.607 176.256C155.295 176.256 154.161 175.983 153.207 175.438C152.258 174.886 151.528 174.108 151.016 173.102C150.505 172.091 150.249 170.901 150.249 169.531C150.249 168.185 150.505 167.003 151.016 165.986C151.533 164.963 152.255 164.168 153.181 163.599C154.107 163.026 155.195 162.739 156.445 162.739C157.252 162.739 158.013 162.869 158.729 163.131C159.451 163.386 160.087 163.784 160.638 164.324C161.195 164.864 161.633 165.551 161.951 166.386C162.269 167.216 162.428 168.205 162.428 169.352V170.298H151.698V168.219H159.471C159.465 167.628 159.337 167.102 159.087 166.642C158.837 166.176 158.488 165.81 158.039 165.543C157.596 165.276 157.079 165.142 156.488 165.142C155.857 165.142 155.303 165.295 154.826 165.602C154.349 165.903 153.977 166.301 153.71 166.795C153.448 167.284 153.315 167.821 153.309 168.406V170.222C153.309 170.983 153.448 171.636 153.727 172.182C154.005 172.722 154.394 173.136 154.894 173.426C155.394 173.71 155.979 173.852 156.65 173.852C157.099 173.852 157.505 173.79 157.869 173.665C158.232 173.534 158.548 173.344 158.815 173.094C159.082 172.844 159.283 172.534 159.42 172.165L162.3 172.489C162.119 173.25 161.772 173.915 161.261 174.483C160.755 175.045 160.107 175.483 159.317 175.795C158.528 176.102 157.624 176.256 156.607 176.256Z"
            fill="white" />
        <g id="Group" filter="url(#filter1_d_103_185)">
            <path id="Vector"
                d="M74.4505 35.0455C71.6163 34.8626 68.8369 35.3563 66.405 36.7643C63.1502 38.6294 60.9926 41.8293 59.8406 45.5229C58.6887 49.2165 58.4144 53.4586 58.8349 58.0848C58.8715 58.5602 58.9629 59.0356 59.0178 59.5293C58.579 59.7122 58.1035 59.895 57.683 60.0961C53.4591 62.0527 49.9118 64.3932 47.297 67.2456C44.6822 70.0981 43 73.554 43 77.3025C43 81.0509 44.6822 84.5251 47.297 87.3776C49.9118 90.2301 53.4408 92.5706 57.683 94.5271C58.1035 94.7282 58.579 94.8928 59.0178 95.0939C58.9629 95.5693 58.8715 96.063 58.8349 96.5385C58.4144 101.183 58.6887 105.425 59.8406 109.1C60.9926 112.776 63.1685 115.976 66.405 117.859C69.6415 119.742 73.4996 120.017 77.2664 119.175C81.0331 118.334 84.8547 116.451 88.658 113.763C89.042 113.489 89.426 113.178 89.81 112.885C90.194 113.178 90.578 113.489 90.962 113.763C94.7653 116.451 98.5686 118.334 102.354 119.175C106.139 120.017 109.979 119.742 113.215 117.859C116.451 115.976 118.627 112.776 119.779 109.1C120.931 105.425 121.206 101.165 120.785 96.5385C120.748 96.063 120.657 95.5876 120.602 95.0939C121.041 94.9111 121.516 94.7282 121.937 94.5271C126.161 92.5706 129.708 90.2301 132.323 87.3776C134.938 84.5251 136.62 81.0509 136.62 77.3025C136.62 73.554 134.938 70.0798 132.323 67.2274C129.708 64.3749 126.179 62.0344 121.937 60.0779C121.516 59.8767 121.041 59.7122 120.602 59.511C120.657 59.0356 120.748 58.5419 120.785 58.0665C121.206 53.4221 120.931 49.1799 119.779 45.5046C118.627 41.8293 116.47 38.6294 113.215 36.7643C109.96 34.8992 106.12 34.6066 102.354 35.4478C98.5869 36.2889 94.7653 38.1722 90.962 40.8602C90.578 41.1344 90.194 41.4453 89.81 41.7378C89.426 41.4453 89.042 41.1344 88.658 40.8602C84.8547 38.1722 81.0514 36.2889 77.2664 35.4478C76.3338 35.2466 75.383 35.1003 74.4505 35.0455ZM74.0116 41.7013C74.5785 41.7378 75.1819 41.8476 75.8401 41.9756C78.3635 42.5424 81.3988 43.9504 84.5804 46.1811C81.9291 48.7045 79.3143 51.5753 76.8093 54.7752C72.7865 55.3237 69.0015 56.1648 65.4907 57.2071C65.1616 53.3306 65.4359 50.0027 66.2221 47.5342C67.0267 45.0109 68.2152 43.4567 69.7695 42.5607C70.9214 41.8841 72.2928 41.5733 74.0116 41.7013ZM105.608 41.7013C107.309 41.5733 108.699 41.8841 109.869 42.5607C111.423 43.4567 112.612 45.0109 113.416 47.5342C114.202 50.0027 114.477 53.3306 114.148 57.2071C110.637 56.1648 106.852 55.342 102.829 54.7752C100.324 51.557 97.7092 48.7045 95.0578 46.1811C98.2577 43.9686 101.275 42.5424 103.798 41.9756C104.438 41.8293 105.042 41.7378 105.608 41.7013ZM89.81 50.4233C90.9803 51.5021 92.1505 52.7272 93.339 53.9889C92.1688 53.9523 90.9985 53.9158 89.81 53.9158C88.6215 53.9158 87.4512 53.9523 86.281 53.9889C87.4695 52.7089 88.6398 51.5021 89.81 50.4233ZM89.81 60.5898C93.0282 60.5898 96.155 60.7727 99.172 61.1018C100.946 63.552 102.683 66.1668 104.292 68.9462C105.901 71.7438 107.309 74.5414 108.534 77.3025C107.309 80.0635 105.901 82.8612 104.292 85.6588C102.683 88.4564 100.946 91.0712 99.172 93.5031C96.1732 93.8323 93.0465 94.0151 89.81 94.0151C86.5735 94.0151 83.4651 93.8323 80.448 93.5031C78.6743 91.0529 76.9373 88.4381 75.3282 85.6588C73.7191 82.8612 72.3111 80.0635 71.086 77.3025C72.3111 74.5414 73.7191 71.7438 75.3282 68.9462C76.9373 66.1485 78.6743 63.5338 80.448 61.1018C83.4651 60.7727 86.5918 60.5898 89.81 60.5898ZM71.3603 62.5829C70.7386 63.5703 70.1169 64.5577 69.5318 65.6C68.9466 66.6422 68.3798 67.6662 67.8312 68.6902C67.3193 67.0445 66.8621 65.4171 66.5147 63.8629C68.0507 63.3875 69.6963 62.9669 71.3603 62.5829ZM108.26 62.5829C109.942 62.9669 111.569 63.3875 113.105 63.8629C112.758 65.4171 112.301 67.0445 111.789 68.6902C111.24 67.6662 110.692 66.6239 110.088 65.6C109.485 64.576 108.863 63.5703 108.26 62.5829ZM60.2429 66.2765C61.1023 69.8421 62.2726 73.5357 63.8085 77.3025C62.2726 81.0692 61.1023 84.7628 60.2429 88.3284C56.7322 86.6828 53.9894 84.7628 52.234 82.8612C50.4421 80.9047 49.6924 79.0944 49.6924 77.3025C49.6924 75.5105 50.4421 73.7003 52.234 71.7438C53.9711 69.8421 56.7139 67.9405 60.2429 66.2765ZM119.395 66.2765C122.906 67.9222 125.649 69.8421 127.404 71.7438C129.196 73.7003 129.946 75.5105 129.946 77.3025C129.946 79.0944 129.196 80.9047 127.404 82.8612C125.649 84.7628 122.906 86.6828 119.395 88.3284C118.536 84.7628 117.366 81.0692 115.83 77.3025C117.347 73.5357 118.536 69.8421 119.395 66.2765ZM89.81 67.2639C84.3062 67.2639 79.7715 71.7986 79.7715 77.3025C79.7715 82.8063 84.3062 87.341 89.81 87.341C95.3138 87.341 99.8486 82.8063 99.8486 77.3025C99.8486 71.7986 95.3138 67.2639 89.81 67.2639ZM89.81 73.9563C91.6934 73.9563 93.1562 75.4191 93.1562 77.3025C93.1562 79.1858 91.6934 80.6487 89.81 80.6487C87.9266 80.6487 86.4638 79.1858 86.4638 77.3025C86.4638 75.4191 87.9266 73.9563 89.81 73.9563ZM67.8495 85.9148C68.3981 86.9388 68.9466 87.981 69.55 89.005C70.1535 90.0289 70.7569 91.0346 71.3786 92.022C69.6963 91.638 68.0689 91.2175 66.533 90.7421C66.8804 89.1878 67.3375 87.5605 67.8495 85.9148ZM111.77 85.9148C112.282 87.5605 112.74 89.1878 113.087 90.7421C111.551 91.2175 109.924 91.638 108.241 92.022C108.863 91.0346 109.485 90.0472 110.07 89.005C110.655 87.9627 111.222 86.9388 111.77 85.9148ZM65.4725 97.3979C68.9832 98.4401 72.7682 99.263 76.791 99.8298C79.296 103.048 81.9108 105.9 84.5622 108.424C81.3623 110.636 78.3452 112.063 75.8219 112.629C73.2436 113.196 71.2871 112.959 69.7329 112.063C68.1787 111.167 66.9901 109.612 66.1856 107.089C65.4359 104.602 65.1433 101.274 65.4725 97.3979ZM114.148 97.3979C114.477 101.274 114.202 104.602 113.416 107.071C112.612 109.594 111.423 111.148 109.869 112.044C108.315 112.94 106.376 113.196 103.78 112.611C101.257 112.044 98.2212 110.636 95.0396 108.406C97.6909 105.882 100.306 103.011 102.811 99.8115C106.852 99.263 110.637 98.4401 114.148 97.3979ZM86.2993 100.634C87.4695 100.671 88.6398 100.707 89.8283 100.707C91.0168 100.707 92.1871 100.671 93.3573 100.634C92.1871 101.896 91.0168 103.103 89.8283 104.2C88.6398 103.103 87.4695 101.896 86.2993 100.634Z"
                fill="black" />
        </g>
    </g>
    <defs>
        <filter id="filter0_d_103_185" x="0" y="0" width="187.826" height="211"
            filterUnits="userSpaceOnUse" color-interpolation-filters="sRGB">
            <feFlood flood-opacity="0" result="BackgroundImageFix" />
            <feColorMatrix in="SourceAlpha" type="matrix"
                values="0 0 0 0 0 0 0 0 0 0 0 0 0 0 0 0 0 0 127 0" result="hardAlpha" />
            <feOffset dx="4" dy="4" />
            <feGaussianBlur stdDeviation="2" />
            <feComposite in2="hardAlpha" operator="out" />
            <feColorMatrix type="matrix"
                values="0 0 0 0 0.378229 0 0 0 0 0.378229 0 0 0 0 0.378229 0 0 0 0.25 0" />
            <feBlend mode="normal" in2="BackgroundImageFix" result="effect1_dropShadow_103_185" />
            <feBlend mode="normal" in="SourceGraphic" in2="effect1_dropShadow_103_185"
                result="shape" />
        </filter>
        <filter id="filter1_d_103_185" x="39" y="35" width="101.62" height="92.6274"
            filterUnits="userSpaceOnUse" color-interpolation-filters="sRGB">
            <feFlood flood-opacity="0" result="BackgroundImageFix" />
            <feColorMatrix in="SourceAlpha" type="matrix"
                values="0 0 0 0 0 0 0 0 0 0 0 0 0 0 0 0 0 0 127 0" result="hardAlpha" />
            <feOffset dy="4" />
            <feGaussianBlur stdDeviation="2" />
            <feComposite in2="hardAlpha" operator="out" />
            <feColorMatrix type="matrix" values="0 0 0 0 0 0 0 0 0 0 0 0 0 0 0 0 0 0 0.25 0" />
            <feBlend mode="normal" in2="BackgroundImageFix" result="effect1_dropShadow_103_185" />
            <feBlend mode="normal" in="SourceGraphic" in2="effect1_dropShadow_103_185"
                result="shape" />
        </filter>
    </defs>
</svg>