<svg width="172" height="172" viewBox="0 0 172 172" fill="none" xmlns="http://www.w3.org/2000/svg">
<path d="M86 0C38.5063 0 0 38.5063 0 86C0 133.499 38.5063 172 86 172C133.494 172 172 133.499 172 86C171.999 38.5063 133.493 0 86 0ZM110.09 151.516C109.595 144.786 109.042 136.449 109.01 133.074C108.795 130.483 108.515 123.894 102.259 119.685C127.097 117.605 138.916 103.877 139.766 85.7367C140.475 75.4062 136.368 66.322 129.075 58.9908C129.446 51.1489 128.838 41.8552 128.333 37.7707C122.733 36.1583 109.672 43.0543 106.022 46.0052C98.3243 43.0165 79.4854 41.9685 68.0366 46.0052C59.9201 40.2971 50.6807 36.7711 45.6445 37.7547C40.9949 48.0587 43.9836 57.7982 44.8917 58.959C38.9037 64.4309 30.5511 71.1658 32.8195 85.275C36.4582 105.963 51.0137 117.122 74.4485 119.852C69.4501 120.874 68.6058 124.604 68.1866 126.222C52.4484 132.714 47.9501 122.212 45.9609 119.476C39.3554 111.301 33.4264 113.671 33.0609 113.8C32.7061 113.928 32.4375 114.444 32.4752 114.692C32.8082 116.455 36.4045 118.245 36.5816 118.39C41.4567 122.023 43.2627 128.586 44.3751 130.457C51.368 141.954 67.6221 137.186 67.778 137.283C67.7886 138.288 67.6652 146.749 67.5684 153.333C37.9313 145.238 16.1249 118.201 16.1249 86C16.1249 47.4075 47.4075 16.1254 85.9994 16.1254C124.591 16.1254 155.875 47.4075 155.875 86C155.875 116.116 136.794 141.695 110.09 151.516Z" fill="#136055"/>
</svg>
