<svg width="455" height="455" viewBox="0 0 455 455" fill="none" xmlns="http://www.w3.org/2000/svg">
<g id="IMG">
<rect id="cercle" x="18.3196" y="18.3196" width="419.686" height="419.686" rx="209.843" fill="#40B3A2"/>
<path id="court" d="M216.647 0.251151C169.652 2.46202 124.501 19.199 87.4196 48.1539C50.3385 77.1088 23.1543 116.855 9.61587 161.912L16.4878 163.977C29.5989 120.342 55.9251 81.8504 91.8358 53.8094C127.746 25.7684 171.473 9.55979 216.984 7.4187L216.647 0.251151Z" fill="#40B3A2"/>
<path id="long" d="M111.357 422.852C158.265 450.675 213.613 460.707 267.302 451.117C320.992 441.528 369.444 412.955 403.819 370.613C438.195 328.271 456.202 274.981 454.556 220.467C452.909 165.953 431.719 113.847 394.851 73.6567L389.563 78.5073C425.268 117.429 445.789 167.89 447.383 220.684C448.978 273.477 431.539 325.085 398.249 366.09C364.958 407.096 318.035 434.767 266.04 444.054C214.046 453.341 160.445 443.626 115.017 416.681L111.357 422.852Z" fill="#40B3A2"/>
</g>
</svg>
