<svg width="138" height="138" viewBox="0 0 138 138" fill="none" xmlns="http://www.w3.org/2000/svg">
<g id="g10">
<path id="path14" d="M37.3875 60.6557C37.3865 60.6557 37.3875 60.6557 37.3865 60.6567L37.3875 60.6557Z" fill="#136055"/>
<path id="path16" d="M122.33 87.2334C121.39 88.4151 120.647 89.3889 120.053 90.524C119.416 91.4761 118.647 92.0143 117.703 92.1642C115.544 92.5061 112.851 90.8027 111.998 90.1197C111.041 89.348 109.608 89.9225 109.45 91.1417L109.449 91.1437C109.401 91.5152 108.178 100.246 100.361 101.069C94.8088 101.651 92.4619 98.8249 91.5681 97.138C91.2349 96.5093 90.5406 96.1326 89.842 96.2689C88.7878 96.4742 88.2545 97.6261 88.7415 98.5648C90.1126 101.208 93.244 104.293 98.9149 104.293C99.481 104.293 100.073 104.262 100.69 104.197C107.519 103.478 110.838 98.0205 112.063 93.8926C113.634 94.7444 115.912 95.6292 118.182 95.2727L118.186 95.2722C118.391 95.24 118.568 95.4151 118.537 95.6199C118.387 96.5804 118.261 97.676 118.152 98.9514C117.637 105.009 110.007 107.179 109.258 107.377C104.822 108.034 102.236 106.663 101.068 105.759C100.578 105.379 99.8948 105.381 99.4059 105.762L99.0739 106.02C98.3738 106.552 98.3509 107.607 99.0399 108.154C100.417 109.246 103.002 110.696 107.014 110.696H107.027C107.801 110.696 108.447 111.282 108.527 112.052C108.809 114.764 108.617 118.358 106.463 120.128C103.212 122.798 94.7276 122.186 91.7337 121.725L91.0249 121.615C90.5026 121.442 90.3559 121.394 89.8333 121.222C89.4404 119.577 88.6443 117.731 87.1021 116.033C87.8401 115.76 88.5993 115.359 89.2945 114.775C90.0781 114.116 90.0027 112.886 89.1466 112.326L89.066 112.273C88.4955 111.899 87.7592 111.963 87.23 112.393C85.7269 113.615 83.5844 113.451 83.5664 113.449C81.9111 113.289 81.1722 115.472 82.5847 116.35C82.6282 116.377 82.6712 116.404 82.7138 116.431C88.5141 120.143 84.6055 129.231 77.9465 127.476C77.4335 127.34 76.9193 127.144 76.4049 126.88C72.0972 124.668 72.1314 123.455 72.1999 121.04C72.2117 120.619 72.2242 120.185 72.2184 119.711C72.2117 119.156 72.3921 118.906 72.5502 118.75C72.7697 118.534 73.1574 118.384 73.5507 118.281C74.3461 118.074 74.947 117.42 75.1025 116.613L75.1193 116.526C75.2788 115.699 74.9287 114.867 74.2478 114.372C73.2833 113.669 72.0876 112.346 72.2158 110.144C72.2167 110.131 72.2175 110.118 72.2184 110.104C72.2883 108.985 73.4512 108.276 74.4851 108.71C76.1195 109.398 78.2832 109.971 80.9555 109.971C81.3987 109.971 81.8571 109.955 82.3281 109.921C87.765 109.533 89.7246 105.145 90.1654 101.799C90.2799 100.928 89.6816 100.092 88.8105 99.9806C87.93 99.8675 87.1435 100.482 87.0325 101.331C86.9513 101.952 86.7944 102.726 86.4937 103.495C85.688 105.555 84.2523 106.63 82.1039 106.784C82.0741 106.786 82.0442 106.788 82.0143 106.79C78.059 107.05 74.55 104.256 73.8511 100.355C73.0684 95.9838 72.9939 90.6983 74.6158 87.1591C76.6229 82.7807 82.3562 83.8514 83.014 83.9906C85.568 84.7968 87.3454 86.1267 88.2957 87.9456C89.2078 89.6899 89.2095 91.5854 89.0605 92.8376C88.9685 93.6093 89.3954 94.3378 90.0888 94.6533C91.0936 94.8525 92.0808 94.1513 92.1971 93.103C92.3856 91.4033 92.3386 88.9145 91.1021 86.5246C89.755 83.9213 87.3497 82.0598 83.9544 80.9894C82.3913 80.4195 79.3263 79.0148 76.6719 77.0561C74.615 75.5377 75.3304 72.2267 77.8461 71.7717C78.0091 71.7421 78.1788 71.7204 78.3551 71.7071C79.5151 71.6195 80.5826 71.4011 81.6153 71.1914C85.1829 70.4624 86.9751 70.0987 88.7881 75.357C89.1643 76.437 90.5296 76.7693 91.3599 75.9825L91.3622 75.9805C91.3845 75.9593 93.6329 73.8615 96.4502 74.0732C98.3422 74.2147 100.151 75.3747 101.826 77.5207C102.349 78.1909 102.879 78.7627 103.414 79.2383C103.43 79.2923 103.443 79.3468 103.466 79.3996C104.049 80.769 104.753 83.1055 103.991 85.2428C103.31 87.1542 101.528 88.623 98.696 89.6079C98.2758 89.754 97.8631 89.879 97.458 89.9852C96.7895 90.16 96.3119 90.7418 96.2797 91.432C96.2791 91.4439 96.2785 91.4558 96.278 91.4677C96.2269 92.5059 97.2057 93.3019 98.2114 93.04C98.7082 92.911 99.2142 92.7579 99.7293 92.5786C103.517 91.2612 105.95 89.1407 106.962 86.2755C107.615 84.4259 107.553 82.5603 107.233 80.963C107.577 80.974 107.922 80.952 108.269 80.887C108.28 80.8847 108.292 80.8827 108.303 80.8803C111.814 80.198 113.976 75.6438 114.952 72.9912C115.253 72.1742 114.87 71.2338 114.056 70.9252C113.227 70.6111 112.319 71.0363 112.019 71.8512C111.087 74.3808 109.432 77.4569 107.703 77.793C107.7 77.7936 107.696 77.7941 107.693 77.795C106.494 78.0192 105.19 76.7183 104.305 75.5852C102.05 72.6968 99.4729 71.1317 96.6442 70.9336C94.3092 70.7704 92.3163 71.598 90.9779 72.3923C88.2415 66.6306 84.2511 67.4452 80.9869 68.1093C80.0499 68.3007 79.0804 68.4979 78.1173 68.571C75.271 68.7859 73.4161 70.3368 72.2866 72.0507C72.2332 71.9193 72.183 71.7874 72.139 71.6543C70.4039 66.4169 74.6527 63.233 74.8281 63.1045L75.2219 62.8223L75.3887 62.3676C75.4368 62.2359 76.0975 60.3605 75.8057 57.4701C75.534 54.7797 78.6164 53.0035 80.7812 54.6234C80.7975 54.6356 80.8134 54.6478 80.8297 54.66C83.1117 56.3962 84.0939 59.1411 84.499 60.8202C84.6771 61.5579 85.4363 62.1623 86.195 62.1623H86.1952C87.147 62.0822 87.8135 61.1795 87.5991 60.2483C87.1093 58.12 85.8591 54.548 82.7582 52.1753C80.212 50.227 76.9828 49.4959 73.1511 49.9892C73.1247 49.9463 73.1009 49.9043 73.0739 49.8613C71.6161 47.5367 71.6816 45.1967 72.2178 43.2984C72.9956 40.5463 76.2027 39.3364 78.5717 40.9383C79.3916 41.4928 80.1827 42.2958 80.8703 43.4413L81.033 43.7128C83.5241 47.867 85.6756 51.4549 89.3591 52.32C89.8832 52.4432 90.4226 52.505 90.9797 52.5047C92.8745 52.5047 94.9706 51.7901 97.331 50.3448C98.0873 49.8814 97.7526 48.7132 96.8655 48.7132C96.4218 48.0201 95.5182 47.7884 94.7943 48.1793C92.8983 49.2028 91.3471 49.556 90.0784 49.2581C87.689 48.697 85.8545 45.6378 83.7305 42.0954L83.5673 41.8231C81.8195 38.9104 79.4609 37.5097 77.18 36.9598C74.5045 36.3152 73.2505 33.2359 74.6115 30.8437C74.8609 30.4058 75.1384 29.9442 75.4377 29.4535L75.7561 28.9294C77.8528 25.4607 77.0721 23.9287 75.5172 20.877C75.2449 20.3428 74.9366 19.7376 74.6028 19.0457C74.4401 18.7078 74.3395 18.3827 74.2852 18.0701C75.2582 18.285 76.6995 18.796 77.8638 20.0076C79.3283 21.5321 80.0388 23.8147 79.9759 26.7924C79.9051 30.1437 81.4224 32.9764 84.1383 34.5636C85.6309 35.4359 87.3921 35.8703 89.1756 35.8703C91.071 35.8703 92.9917 35.3796 94.6427 34.4035C97.4223 32.7595 99.1493 29.9575 99.5381 26.5535C99.6396 25.6669 99.0364 24.8297 98.1488 24.7392C97.2657 24.6496 96.512 25.2923 96.4206 26.1469C96.1579 28.6046 94.986 30.5462 93.0416 31.6963C90.7891 33.0283 87.8491 33.0895 85.7255 31.8483C84.504 31.1346 83.0606 29.6895 83.1204 26.8588C83.2022 22.9897 82.1831 19.9374 80.0916 17.7871C78.5149 16.166 76.6513 15.4166 75.2611 15.0692C75.9481 14.2766 76.7589 13.7848 76.9445 13.6781L77.1554 13.5594L77.3227 13.3793C78.2742 12.3545 81.5036 9.47565 83.77 9.68185C84.992 9.79292 86.1599 10.6336 87.5121 11.6072C88.4065 12.251 89.4137 12.9745 90.5922 13.5823C88.341 15.9168 87.3387 19.0648 87.6885 22.8336C87.8584 24.6679 88.3218 26.3046 88.7255 27.4501C89.0167 28.2758 89.9255 28.7491 90.7494 28.4536C91.582 28.1549 91.9921 27.2518 91.7041 26.4415C91.3662 25.4921 90.9649 24.0995 90.8205 22.5428C90.502 19.1144 91.5832 16.5003 94.0282 14.7609C94.1891 14.789 94.3515 14.8154 94.5177 14.8369C96.4537 15.0866 97.0427 15.9058 98.216 17.5385C99.4045 19.1912 100.883 21.2485 104.258 23.1889C107.128 24.839 107.391 26.2429 107.79 28.3677C108.167 30.376 108.635 32.8752 111.301 35.7903C113.878 38.6096 114.34 41.0474 114.828 43.6284C115.236 45.7782 115.655 47.9975 117.207 50.4074C117.201 50.8012 117.197 51.0973 117.192 51.4911C115.877 53.3796 114.398 54.5205 112.782 54.8876C112.013 55.0622 111.278 55.0419 110.625 54.9303C111.843 52.382 111.876 49.5653 110.718 46.5533C108.938 41.9261 105.547 38.6096 100.911 36.9624C99.122 36.327 97.4719 36.0571 96.2785 35.9451C95.3117 35.8549 94.4785 36.615 94.4785 37.5859C94.5194 38.3689 95.1301 39 95.9114 39.0699C98.7114 39.3207 105.087 40.6739 107.782 47.6823C108.645 49.9266 108.632 51.8882 107.74 53.6783C106.221 56.7294 102.532 58.4807 100.714 59.1863C100.127 59.414 99.8134 60.0508 99.9824 60.6566L100.073 60.9779L100.176 61.3387C100.372 62.0297 101.118 62.4036 101.789 62.1463L101.81 62.1379C103.497 61.4895 106.494 60.0897 108.722 57.6916C109.982 58.1014 111.622 58.3641 113.427 57.9663C114.872 57.6476 116.211 56.9605 117.436 55.9142C118.055 55.3858 119.007 55.8037 119.014 56.6172L119.015 56.6413C119.034 58.78 119.059 61.4416 120.893 65.1101C123.556 70.4354 120.863 72.7435 120.566 72.9758L119.382 73.7884L120.147 75.0574C122.197 78.4614 124.57 84.3531 123.152 86.1876C122.862 86.5635 122.588 86.908 122.33 87.2334ZM65.23 71.6543C65.1862 71.7874 65.1357 71.9193 65.0824 72.0507C63.9528 70.3368 62.098 68.7859 59.2516 68.571C58.2886 68.4979 57.3191 68.3007 56.3818 68.1093C53.1179 67.4452 49.1277 66.6306 46.391 72.3923C45.0527 71.598 43.0598 70.7704 40.7247 70.9336C37.896 71.1317 35.3185 72.6968 33.0638 75.5852C32.1793 76.7183 30.8748 78.0192 29.6763 77.795C29.6728 77.7941 29.6693 77.7936 29.6658 77.793C27.9371 77.4569 26.2821 74.3808 25.3501 71.8512C25.0496 71.0363 24.1419 70.6111 23.3131 70.9252C22.4991 71.2338 22.116 72.1742 22.4167 72.9912C23.3931 75.6438 25.5554 80.198 29.0655 80.8803C29.0771 80.8827 29.089 80.8847 29.1003 80.887C29.4469 80.952 29.792 80.974 30.1362 80.963C29.8155 82.5603 29.7537 84.4259 30.4071 86.2755C31.4189 89.1407 33.852 91.2612 37.6397 92.5786C38.1547 92.7579 38.6608 92.911 39.1575 93.04C40.1636 93.3019 41.142 92.5059 41.091 91.4677C41.0904 91.4558 41.0898 91.4439 41.0892 91.432C41.057 90.7418 40.5794 90.16 39.911 89.9852C39.5058 89.879 39.0932 89.754 38.673 89.6079C35.8408 88.623 34.0591 87.1542 33.3778 85.2428C32.616 83.1055 33.3198 80.769 33.9033 79.3996C33.9259 79.3468 33.939 79.2923 33.9552 79.2383C34.4903 78.7627 35.0198 78.1909 35.543 77.5207C37.218 75.3747 39.0268 74.2147 40.9187 74.0732C43.7361 73.8615 45.9844 75.9593 46.0068 75.9805L46.0091 75.9825C46.8393 76.7693 48.2047 76.437 48.5808 75.357C50.3939 70.0987 52.1861 70.4624 55.7537 71.1914C56.7863 71.4011 57.8538 71.6195 59.0138 71.7071C59.1904 71.7204 59.3598 71.7421 59.5228 71.7717C62.0385 72.2267 62.754 75.5377 60.697 77.0561C58.0429 79.0148 54.9779 80.4195 53.4145 80.9894C50.0192 82.0598 47.6139 83.9213 46.2669 86.5246C45.0303 88.9145 44.9834 91.4033 45.1719 93.103C45.2884 94.1513 46.2753 94.8525 47.2801 94.6533C47.9738 94.3378 48.4004 93.6093 48.3085 92.8376C48.1594 91.5854 48.1612 89.6899 49.0732 87.9456C50.0235 86.1267 51.801 84.7968 54.355 83.9906C55.0127 83.8514 60.746 82.7807 62.7531 87.1591C64.3751 90.6983 64.3005 95.9838 63.5178 100.355C62.8192 104.256 59.3099 107.05 55.3546 106.79C55.3248 106.788 55.2949 106.786 55.265 106.784C53.1167 106.63 51.6809 105.555 50.8753 103.495C50.5746 102.726 50.4177 101.952 50.3365 101.331C50.2254 100.482 49.4389 99.8675 48.5585 99.9806C47.6873 100.092 47.089 100.928 47.2036 101.799C47.6444 105.145 49.6039 109.533 55.0408 109.921C55.5121 109.955 55.9703 109.971 56.4134 109.971C59.0858 109.971 61.2495 109.398 62.8839 108.71C63.9177 108.276 65.0806 108.985 65.1505 110.104C65.1514 110.118 65.1523 110.131 65.1531 110.144C65.2816 112.346 64.0857 113.669 63.1211 114.372C62.4399 114.867 62.0902 115.699 62.2497 116.526L62.2665 116.613C62.4222 117.42 63.0228 118.074 63.8183 118.281C64.2115 118.384 64.5992 118.534 64.8191 118.75C64.9768 118.906 65.1572 119.156 65.1505 119.711C65.1447 120.185 65.1572 120.619 65.1691 121.04C65.2375 123.455 65.2718 124.668 60.9644 126.88C60.4496 127.144 59.9358 127.34 59.4225 127.476C52.7638 129.231 48.8549 120.143 54.6551 116.431C54.6978 116.404 54.7407 116.377 54.7842 116.35C56.1968 115.472 55.4579 113.289 53.8025 113.449C53.7846 113.451 51.642 113.615 50.139 112.393C49.6097 111.963 48.8734 111.899 48.303 112.273L48.2224 112.326C47.3663 112.886 47.2909 114.116 48.0745 114.775C48.7696 115.359 49.5288 115.76 50.2669 116.033C48.7246 117.731 47.9286 119.577 47.5354 121.222C47.0131 121.394 46.8663 121.442 46.344 121.615L45.6353 121.725C42.6413 122.186 34.1576 122.798 30.9062 120.128C28.7515 118.358 28.5601 114.764 28.8422 112.052C28.9223 111.282 29.5678 110.696 30.3424 110.696H30.3549C34.3676 110.696 36.9518 109.246 38.329 108.154C39.0181 107.607 38.9951 106.552 38.2951 106.02L37.963 105.762C37.4741 105.381 36.7911 105.379 36.301 105.759C35.1329 106.663 32.5467 108.034 28.1106 107.377C27.3621 107.179 19.7322 105.009 19.2166 98.9514C19.1081 97.676 18.9817 96.5804 18.8323 95.6199C18.8007 95.4151 18.9782 95.24 19.1826 95.2722L19.1873 95.2727C21.4571 95.6292 23.7348 94.7444 25.3057 93.8926C26.5312 98.0205 29.8503 103.478 36.6789 104.197C37.2963 104.262 37.8879 104.293 38.454 104.293C44.125 104.293 47.2564 101.208 48.6275 98.5648C49.1144 97.6261 48.5811 96.4742 47.5269 96.2689C46.8283 96.1326 46.1341 96.5093 45.8009 97.138C44.9071 98.8249 42.5601 101.651 37.0081 101.069C29.1914 100.246 27.9676 91.5152 27.9195 91.1437L27.9192 91.1417C27.7608 89.9225 26.3279 89.348 25.3709 90.1197C24.5178 90.8027 21.8248 92.5061 19.6661 92.1642C18.7218 92.0143 17.9527 91.4761 17.3156 90.524C16.7223 89.3889 15.979 88.4151 15.0397 87.2334C14.781 86.908 14.507 86.5635 14.2167 86.1876C12.7991 84.3531 15.1722 78.4614 17.2222 75.0574L17.9867 73.7884L16.8032 72.9758C16.5056 72.7435 13.813 70.4354 16.4755 65.1101C18.3097 61.4416 18.3347 58.78 18.3544 56.6413L18.3547 56.6172C18.3622 55.8037 19.314 55.3858 19.9326 55.9142C21.1578 56.9605 22.4967 57.6476 23.9418 57.9663C25.7468 58.3641 27.3864 58.1014 28.6468 57.6916C30.8754 60.0897 33.8723 61.4895 35.5586 62.1379L35.5804 62.1463C36.2509 62.4036 36.9973 62.0297 37.1934 61.3387L37.2955 60.9779L37.3868 60.6566C37.5556 60.0508 37.2418 59.414 36.6548 59.1863C34.8371 58.4807 31.1483 56.7294 29.629 53.6783C28.7373 51.8882 28.7236 49.9266 29.5867 47.6823C32.2822 40.6739 38.6576 39.3207 41.4575 39.0699C42.2388 39 42.8495 38.3689 42.8904 37.5859C42.8907 36.615 42.0572 35.8549 41.0904 35.9451C39.897 36.0571 38.2469 36.327 36.4582 36.9624C31.822 38.6096 28.431 41.9261 26.6513 46.5533C25.4927 49.5653 25.5264 52.382 26.7441 54.9303C26.0913 55.0419 25.3561 55.0622 24.5865 54.8876C22.9706 54.5205 21.4922 53.3796 20.177 51.4911C20.1718 51.0973 20.1675 50.8012 20.1623 50.4074C21.7135 47.9975 22.1334 45.7782 22.5405 43.6284C23.0292 41.0474 23.4906 38.6096 26.0684 35.7903C28.7338 32.8752 29.2024 30.376 29.5791 28.3677C29.9779 26.2429 30.2412 24.839 33.1113 23.1889C36.4858 21.2485 37.9645 19.1912 39.1529 17.5385C40.3262 15.9058 40.9152 15.0866 42.8513 14.8369C43.0174 14.8154 43.1798 14.789 43.3408 14.7609C45.7858 16.5003 46.8669 19.1144 46.5488 22.5428C46.4044 24.0995 46.0027 25.4921 45.6651 26.4415C45.3769 27.2518 45.7869 28.1549 46.6195 28.4536C47.4434 28.7491 48.3523 28.2758 48.6434 27.4501C49.0471 26.3046 49.5105 24.6679 49.6805 22.8336C50.0305 19.0648 49.0283 15.9168 46.7767 13.5823C47.9553 12.9745 48.9624 12.251 49.8571 11.6072C51.2091 10.6336 52.3769 9.79292 53.599 9.68185C55.8653 9.47565 59.0947 12.3545 60.0462 13.3793L60.2136 13.5594L60.4244 13.6781C60.61 13.7848 61.4208 14.2766 62.1079 15.0692C60.7176 15.4166 58.854 16.166 57.2773 17.7871C55.1858 19.9374 54.1668 22.9897 54.2486 26.8588C54.3083 29.6895 52.865 31.1346 51.6435 31.8483C49.5198 33.0895 46.5798 33.0283 44.3274 31.6963C42.3829 30.5462 41.211 28.6046 40.9483 26.1469C40.8569 25.2923 40.1032 24.6496 39.2202 24.7392C38.3325 24.8297 37.7296 25.6669 37.8308 26.5535C38.22 29.9575 39.9466 32.7595 42.7263 34.4035C44.3773 35.3796 46.2979 35.8703 48.1934 35.8703C49.9772 35.8703 51.738 35.4359 53.2307 34.5636C55.9465 32.9764 57.4638 30.1437 57.393 26.7924C57.3301 23.8147 58.0409 21.5321 59.5051 20.0076C60.6695 18.796 62.1108 18.285 63.0837 18.0701C63.0295 18.3827 62.9291 18.7078 62.7661 19.0457C62.4324 19.7376 62.1241 20.3428 61.8518 20.877C60.2968 23.9287 59.5161 25.4607 61.6128 28.9294L61.9315 29.4535C62.2305 29.9442 62.508 30.4058 62.7572 30.8437C64.1184 33.2359 62.8645 36.3152 60.1889 36.9598C57.9078 37.5097 55.5495 38.9104 53.8017 41.8231L53.6384 42.0954C51.5144 45.6378 49.6799 48.697 47.2906 49.2581C46.0218 49.556 44.4706 49.2028 42.5746 48.1793C41.8508 47.7884 40.9471 48.0201 40.5034 48.7132C39.6166 48.7132 39.2817 49.8814 40.038 50.3448C42.3983 51.7901 44.4947 52.5047 46.3893 52.5047C46.9464 52.505 47.4858 52.4432 48.0098 52.32C51.6934 51.4549 53.8449 47.867 56.336 43.7128L56.4987 43.4413C57.1863 42.2958 57.9774 41.4928 58.7975 40.9383C61.1665 39.3364 64.3736 40.5463 65.1511 43.2984C65.6873 45.1967 65.7529 47.5367 64.295 49.8613C64.2681 49.9043 64.2443 49.9463 64.2179 49.9892C60.3861 49.4959 57.157 50.227 54.6108 52.1753C51.5098 54.548 50.2596 58.12 49.7698 60.2483C49.5555 61.1795 50.2219 62.0822 51.174 62.1623C51.9329 62.1623 52.6918 61.5579 52.8699 60.8202C53.275 59.1411 54.2573 56.3962 56.5393 54.66C56.5555 54.6478 56.5715 54.6356 56.588 54.6234C58.7525 53.0035 61.835 54.7797 61.5632 57.4701C61.2715 60.3605 61.9321 62.2359 61.9802 62.3676L62.1473 62.8223L62.5408 63.1045C62.7163 63.233 66.9651 66.4169 65.23 71.6543ZM68.6845 0.000198364C30.751 0.000198364 0 30.7512 0 68.6847C0 106.618 30.751 137.369 68.6845 137.369C106.618 137.369 137.369 106.618 137.369 68.6847C137.369 30.7512 106.618 0.000198364 68.6845 0.000198364Z" fill="#136055"/>
<path id="path18" d="M99.9836 60.6635L100.098 61.0654L100.073 60.9778L99.9824 60.6568C99.983 60.6589 99.983 60.6612 99.9836 60.6635Z" fill="#136055"/>
<path id="path22" d="M88.7875 94.2442L90.2834 94.73C90.2161 94.7085 90.1517 94.6818 90.0888 94.6534C90.02 94.6395 89.951 94.6221 89.882 94.5998L88.7875 94.2442Z" fill="#136055"/>
<path id="path24" d="M37.3854 60.6635C37.3859 60.6612 37.3859 60.6589 37.3865 60.6568L37.2955 60.9778L37.2708 61.0654L37.3854 60.6635Z" fill="#136055"/>
<path id="path28" d="M48.5814 94.2442L47.4869 94.5998C47.4179 94.6221 47.3489 94.6395 47.2802 94.6534C47.2172 94.6818 47.1529 94.7085 47.0856 94.73L48.5814 94.2442Z" fill="#136055"/>
</g>
</svg>
