<svg width="811" height="733" viewBox="0 0 811 733" fill="none" xmlns="http://www.w3.org/2000/svg">
    <path id="Vector"
        d="M272.445 0.393918C247.894 -1.18985 223.817 3.08632 202.75 15.2813C174.555 31.4357 155.864 59.1516 145.885 91.1436C135.906 123.136 133.53 159.879 137.173 199.948C137.49 204.066 138.282 208.184 138.757 212.46C134.955 214.044 130.837 215.628 127.194 217.37C90.6039 234.316 59.8746 254.588 37.2236 279.295C14.5727 304.002 0 333.935 0 366.402C0 398.869 14.5727 428.961 37.2236 453.667C59.8746 478.374 90.4455 498.646 127.194 515.593C130.837 517.335 134.955 518.76 138.757 520.502C138.282 524.62 137.49 528.896 137.173 533.014C133.53 573.242 135.906 609.985 145.885 641.819C155.864 673.652 174.713 701.368 202.75 717.681C230.787 733.994 264.209 736.369 296.839 729.084C329.469 721.799 362.574 705.486 395.521 682.205C398.847 679.829 402.174 677.137 405.5 674.603C408.826 677.137 412.153 679.829 415.479 682.205C448.426 705.486 481.373 721.799 514.161 729.084C546.95 736.369 580.213 733.994 608.25 717.681C636.287 701.368 655.136 673.652 665.115 641.819C675.094 609.985 677.47 573.083 673.827 533.014C673.51 528.896 672.718 524.778 672.243 520.502C676.045 518.919 680.163 517.335 683.806 515.593C720.396 498.646 751.125 478.374 773.776 453.667C796.427 428.961 811 398.869 811 366.402C811 333.935 796.427 303.843 773.776 279.137C751.125 254.43 720.554 234.158 683.806 217.211C680.163 215.469 676.045 214.044 672.243 212.302C672.718 208.184 673.51 203.908 673.827 199.79C677.47 159.562 675.094 122.819 665.115 90.9853C655.136 59.1516 636.445 31.4357 608.25 15.2813C580.055 -0.873093 546.791 -3.40712 514.161 3.8782C481.531 11.1635 448.426 27.4763 415.479 50.7576C412.153 53.1333 408.826 55.8257 405.5 58.3597C402.174 55.8257 398.847 53.1333 395.521 50.7576C362.574 27.4763 329.627 11.1635 296.839 3.8782C288.76 2.13606 280.524 0.869048 272.445 0.393918ZM268.644 58.043C273.554 58.3597 278.781 59.31 284.484 60.4186C306.343 65.3283 332.637 77.5233 360.198 96.8452C337.23 118.701 314.579 143.566 292.879 171.282C258.031 176.033 225.243 183.319 194.83 192.346C191.979 158.77 194.355 129.946 201.166 108.565C208.136 86.7091 218.431 73.2471 231.895 65.4867C241.874 59.6267 253.754 56.9343 268.644 58.043ZM542.356 58.043C557.087 56.9343 569.126 59.6267 579.263 65.4867C592.727 73.2471 603.023 86.7091 609.992 108.565C616.804 129.946 619.179 158.77 616.328 192.346C585.916 183.319 553.127 176.192 518.28 171.282C496.579 143.408 473.928 118.701 450.96 96.8452C478.68 77.6817 504.816 65.3283 526.675 60.4186C532.219 59.1516 537.446 58.3597 542.356 58.043ZM405.5 133.589C415.637 142.933 425.775 153.544 436.071 164.472C425.933 164.155 415.796 163.838 405.5 163.838C395.204 163.838 385.067 164.155 374.929 164.472C385.225 153.386 395.362 142.933 405.5 133.589ZM405.5 221.646C433.378 221.646 460.464 223.23 486.6 226.08C501.965 247.303 517.012 269.951 530.952 294.024C544.891 318.256 557.087 342.487 567.7 366.402C557.087 390.317 544.891 414.548 530.952 438.78C517.012 463.012 501.965 485.66 486.6 506.724C460.623 509.574 433.537 511.158 405.5 511.158C377.463 511.158 350.536 509.574 324.4 506.724C309.035 485.501 293.987 462.853 280.048 438.78C266.109 414.548 253.913 390.317 243.3 366.402C253.913 342.487 266.109 318.256 280.048 294.024C293.987 269.792 309.035 247.144 324.4 226.08C350.536 223.23 377.622 221.646 405.5 221.646ZM245.676 238.909C240.29 247.461 234.905 256.014 229.836 265.041C224.767 274.068 219.857 282.938 215.105 291.807C210.67 277.553 206.71 263.457 203.7 249.995C217.006 245.877 231.262 242.235 245.676 238.909ZM565.324 238.909C579.897 242.235 593.994 245.877 607.3 249.995C604.29 263.457 600.33 277.553 595.895 291.807C591.143 282.938 586.391 273.91 581.164 265.041C575.937 256.172 570.551 247.461 565.324 238.909ZM149.37 270.901C156.814 301.784 166.952 333.776 180.257 366.402C166.952 399.028 156.814 431.02 149.37 461.903C118.957 447.649 95.1975 431.02 79.9912 414.548C64.4682 397.602 57.9738 381.923 57.9738 366.402C57.9738 350.881 64.4682 335.202 79.9912 318.256C95.0391 301.784 118.799 285.313 149.37 270.901ZM661.789 270.901C692.201 285.155 715.961 301.784 731.167 318.256C746.69 335.202 753.185 350.881 753.185 366.402C753.185 381.923 746.69 397.602 731.167 414.548C715.961 431.02 692.201 447.649 661.789 461.903C654.344 431.02 644.206 399.028 630.901 366.402C644.048 333.776 654.344 301.784 661.789 270.901ZM405.5 279.453C357.822 279.453 318.539 318.731 318.539 366.402C318.539 414.073 357.822 453.351 405.5 453.351C453.178 453.351 492.461 414.073 492.461 366.402C492.461 318.731 453.178 279.453 405.5 279.453ZM405.5 337.419C421.815 337.419 434.487 350.089 434.487 366.402C434.487 382.715 421.815 395.385 405.5 395.385C389.185 395.385 376.513 382.715 376.513 366.402C376.513 350.089 389.185 337.419 405.5 337.419ZM215.263 440.997C220.015 449.866 224.767 458.894 229.995 467.763C235.222 476.632 240.449 485.343 245.834 493.895C231.262 490.569 217.164 486.927 203.859 482.809C206.868 469.347 210.828 455.251 215.263 440.997ZM595.737 440.997C600.172 455.251 604.132 469.347 607.141 482.809C593.836 486.927 579.738 490.569 565.166 493.895C570.551 485.343 575.937 476.79 581.005 467.763C586.074 458.736 590.985 449.866 595.737 440.997ZM194.672 540.458C225.084 549.485 257.873 556.612 292.72 561.522C314.421 589.396 337.072 614.103 360.04 635.959C332.32 655.122 306.184 667.476 284.325 672.385C261.991 677.295 245.042 675.236 231.579 667.476C218.115 659.715 207.819 646.253 200.849 624.397C194.355 602.858 191.821 574.034 194.672 540.458ZM616.328 540.458C619.179 574.034 616.804 602.858 609.992 624.239C603.023 646.095 592.727 659.557 579.263 667.317C565.799 675.078 549.009 677.295 526.516 672.227C504.657 667.317 478.363 655.122 450.802 635.8C473.77 613.944 496.421 589.079 518.121 561.363C553.127 556.612 585.916 549.485 616.328 540.458ZM375.087 568.49C385.225 568.807 395.362 569.124 405.658 569.124C415.954 569.124 426.092 568.807 436.229 568.49C426.092 579.418 415.954 589.871 405.658 599.374C395.362 589.871 385.225 579.418 375.087 568.49Z"
        fill="#959595" fill-opacity="0.18" />
</svg>