<svg xmlns="http://www.w3.org/2000/svg" viewBox="0 0 399 44" fill="none">
<g id="socials">
<!-- Ligne ondulée gauche -->
<path id="line_left" d="M0 21 C 22 26, 44 16, 66 21 S 88 26, 88 26" stroke="#2C9686" stroke-width="4" fill="none"/>
<!-- Ligne ondulée droite -->
<path id="line_right" d="M310 21 C 332 26, 354 16, 376 21 S 399 26, 399 26" stroke="#2C9686" stroke-width="4" fill="none"/>
<g id="socials_2">
<g id="facebook">
<path id="Vector" fill-rule="evenodd" clip-rule="evenodd" d="M255.667 20.5C255.667 17.4851 256.519 14.5342 258.12 12.0016C259.72 9.46897 262.003 7.46211 264.692 6.22184C267.382 4.98157 270.364 4.56057 273.282 5.00936C276.2 5.45814 278.929 6.75766 281.143 8.75196C283.356 10.7463 284.958 13.3507 285.759 16.2526C286.559 19.1546 286.523 22.2308 285.654 25.1122C284.786 27.9937 283.122 30.5579 280.863 32.4971C278.603 34.4364 275.844 35.6684 272.917 36.0453V24.4167H276.75C277.258 24.4167 277.746 24.2104 278.105 23.8431C278.465 23.4758 278.667 22.9777 278.667 22.4584C278.667 21.939 278.465 21.4409 278.105 21.0736C277.746 20.7063 277.258 20.5 276.75 20.5H272.917V16.5834C272.917 16.064 273.119 15.5659 273.478 15.1986C273.837 14.8313 274.325 14.625 274.833 14.625H275.792C276.3 14.625 276.787 14.4187 277.147 14.0514C277.506 13.6842 277.708 13.1861 277.708 12.6667C277.708 12.1473 277.506 11.6492 277.147 11.2819C276.787 10.9147 276.3 10.7084 275.792 10.7084H274.833C273.308 10.7084 271.846 11.3273 270.767 12.4291C269.689 13.5309 269.083 15.0252 269.083 16.5834V20.5H265.25C264.742 20.5 264.254 20.7063 263.895 21.0736C263.535 21.4409 263.333 21.939 263.333 22.4584C263.333 22.9777 263.535 23.4758 263.895 23.8431C264.254 24.2104 264.742 24.4167 265.25 24.4167H269.083V36.0453C265.378 35.5683 261.97 33.7257 259.499 30.8635C257.029 28.0012 255.666 24.3162 255.667 20.5ZM271 40.0834C281.586 40.0834 290.167 31.3159 290.167 20.5C290.167 9.68415 281.586 0.916687 271 0.916687C260.414 0.916687 251.833 9.68415 251.833 20.5C251.833 31.3159 260.414 40.0834 271 40.0834Z" fill="#2C9686"/>
</g>
<g id="github">
<path id="Vector_2" fill-rule="evenodd" clip-rule="evenodd" d="M199.5 4.75C190.525 4.75 183.25 12.0254 183.25 21C183.25 29.9746 190.525 37.25 199.5 37.25C208.475 37.25 215.75 29.9746 215.75 21C215.75 12.0254 208.475 4.75 199.5 4.75ZM180 21C180 10.2305 188.73 1.5 199.5 1.5C210.27 1.5 219 10.2305 219 21C219 31.7695 210.27 40.5 199.5 40.5C188.73 40.5 180 31.7695 180 21Z" fill="#2C9686"/>
<path id="Vector_3" fill-rule="evenodd" clip-rule="evenodd" d="M195.587 38.4457C195.429 38.2428 195.429 36.4353 195.587 33.0234C193.903 33.0816 192.84 32.9647 192.396 32.673C191.73 32.2353 191.064 30.8855 190.473 29.9342C189.881 28.9829 188.569 28.8325 188.039 28.6199C187.509 28.4072 187.376 27.5403 189.499 28.1959C191.622 28.8515 191.726 30.6368 192.396 31.0543C193.066 31.4718 194.667 31.2891 195.393 30.9547C196.119 30.6203 196.065 29.3751 196.195 28.8818C196.358 28.4214 195.782 28.3193 195.769 28.3155C195.06 28.3155 191.338 27.506 190.315 23.9011C189.293 20.2964 190.61 17.9402 191.312 16.9274C191.781 16.2521 191.74 14.813 191.188 12.6099C193.19 12.3541 194.735 12.9841 195.822 14.5001C195.823 14.5088 197.248 13.6528 199.5 13.6528C201.752 13.6528 202.551 14.35 203.168 14.5001C203.785 14.6502 204.278 11.8465 208.086 12.6099C207.291 14.1725 206.625 16.1251 207.133 16.9274C207.641 17.7296 209.636 20.2807 208.41 23.9011C207.594 26.3148 205.988 27.7863 203.594 28.3155C203.319 28.4031 203.182 28.5445 203.182 28.7395C203.182 29.0321 203.553 29.064 204.088 30.4345C204.444 31.3482 204.47 33.9578 204.165 38.2632C203.392 38.4599 202.791 38.5919 202.362 38.6595C201.6 38.7791 200.773 38.8463 199.961 38.8722C199.148 38.8981 198.866 38.8952 197.743 38.7906C196.994 38.7209 196.275 38.6059 195.587 38.4457Z" fill="#2C9686"/>
</g>
<g id="linkedin">
<path id="Vector_4" d="M139.5 3.25C141.025 3.25 142.488 3.8558 143.566 4.93414C144.644 6.01247 145.25 7.47501 145.25 9V32C145.25 33.525 144.644 34.9875 143.566 36.0659C142.488 37.1442 141.025 37.75 139.5 37.75H116.5C114.975 37.75 113.512 37.1442 112.434 36.0659C111.356 34.9875 110.75 33.525 110.75 32V9C110.75 7.47501 111.356 6.01247 112.434 4.93414C113.512 3.8558 114.975 3.25 116.5 3.25L139.5 3.25ZM139.5 7.08333L116.5 7.08333C115.992 7.08333 115.504 7.28527 115.145 7.64471C114.785 8.00416 114.583 8.49167 114.583 9V32C114.583 32.5083 114.785 32.9958 115.145 33.3553C115.504 33.7147 115.992 33.9167 116.5 33.9167H139.5C140.008 33.9167 140.496 33.7147 140.855 33.3553C141.215 32.9958 141.417 32.5083 141.417 32V9C141.417 8.49167 141.215 8.00416 140.855 7.64471C140.496 7.28527 140.008 7.08333 139.5 7.08333ZM120.333 16.6667C120.803 16.6667 121.256 16.8391 121.607 17.151C121.958 17.463 122.182 17.8929 122.237 18.3591L122.25 18.5833V28.1667C122.249 28.6552 122.062 29.1251 121.727 29.4803C121.392 29.8355 120.933 30.0493 120.446 30.0779C119.958 30.1065 119.478 29.9479 119.103 29.6343C118.729 29.3208 118.488 28.876 118.43 28.3909L118.417 28.1667V18.5833C118.417 18.075 118.619 17.5875 118.978 17.228C119.337 16.8686 119.825 16.6667 120.333 16.6667ZM126.083 14.75C126.532 14.7499 126.967 14.9074 127.312 15.195C127.656 15.4825 127.889 15.882 127.969 16.3236C128.355 16.1006 128.754 15.9003 129.163 15.7237C130.442 15.1774 132.357 14.8765 134.085 15.4189C134.992 15.7064 135.902 16.2431 136.577 17.1573C137.181 17.9719 137.507 18.9628 137.572 20.0764L137.583 20.5V28.1667C137.583 28.6552 137.396 29.1251 137.06 29.4803C136.725 29.8355 136.267 30.0493 135.779 30.0779C135.291 30.1065 134.811 29.9479 134.436 29.6343C134.062 29.3208 133.821 28.876 133.763 28.3909L133.75 28.1667V20.5C133.75 19.8675 133.597 19.5723 133.497 19.4362C133.354 19.2585 133.157 19.1321 132.935 19.0759C132.268 18.8651 131.308 18.9762 130.67 19.2484C129.712 19.6586 128.834 20.3026 128.236 20.8987L128 21.1517V28.1667C127.999 28.6552 127.812 29.1251 127.477 29.4803C127.142 29.8355 126.683 30.0493 126.196 30.0779C125.708 30.1065 125.228 29.9479 124.853 29.6343C124.479 29.3208 124.238 28.876 124.18 28.3909L124.167 28.1667V16.6667C124.167 16.1583 124.369 15.6708 124.728 15.3114C125.087 14.9519 125.575 14.75 126.083 14.75ZM120.333 10.9167C120.842 10.9167 121.329 11.1186 121.689 11.478C122.048 11.8375 122.25 12.325 122.25 12.8333C122.25 13.3417 122.048 13.8292 121.689 14.1886C121.329 14.5481 120.842 14.75 120.333 14.75C119.825 14.75 119.337 14.5481 118.978 14.1886C118.619 13.8292 118.417 13.3417 118.417 12.8333C118.417 12.325 118.619 11.8375 118.978 11.478C119.337 11.1186 119.825 10.9167 120.333 10.9167Z" fill="#2C9686"/>
</g>
</g>
</g>
</svg>
