<svg width="306" height="100" viewBox="0 0 306 100" fill="none" xmlns="http://www.w3.org/2000/svg">
<g id="TMDB">
<path id="Vector" d="M125.695 28.8373C126.648 26.7674 127.11 24.1326 127.11 20.959C127.11 17.8123 126.648 15.1977 125.695 13.1412C124.753 11.0802 123.337 9.54438 121.447 8.5595C119.573 7.58319 117.288 7.1084 114.616 7.1084H108.977H108.477V7.6084V34.3916V34.8916H108.977H114.595C117.268 34.8916 119.552 34.4168 121.426 33.4405L121.427 33.4398C123.33 32.4416 124.753 30.8995 125.695 28.8373ZM125.695 28.8373C125.695 28.8376 125.695 28.8378 125.695 28.838L125.241 28.6289L125.696 28.8366C125.696 28.8369 125.695 28.8371 125.695 28.8373ZM16.8112 6.82129H4.5V0.5H37.8676V6.82129H25.5563H25.0563V7.32129V41.5H17.3112V7.32129V6.82129H16.8112ZM80.5387 0.5H90.6138V41.5H83.0321V14.6631V14.1631H82.5321H82.1848H81.846L81.7204 14.4777L71.0167 41.2949H65.8511L55.1472 14.3758L55.0218 14.0605H54.6825H54.3352H53.8352V14.5605V41.5H46.2535V0.5H56.3286L67.7256 28.4078L67.8526 28.7188H68.1885H68.6788H69.0147L69.1417 28.4078L80.5387 0.5ZM114.963 41.5H100.629V0.5H115.086C119.228 0.5 122.764 1.32716 125.714 2.95991L125.715 2.96074C128.665 4.58028 130.931 6.90689 132.521 9.95211L132.522 9.95362C134.125 12.9978 134.937 16.6602 134.937 20.959C134.937 25.2716 134.124 28.948 132.521 32.0062L132.521 32.0077C130.931 35.0657 128.651 37.4059 125.675 39.0392L125.674 39.0396C122.711 40.6725 119.147 41.5 114.963 41.5ZM161.595 41.5H144.217V0.5H160.471C163.504 0.5 165.997 0.951705 167.971 1.83078C169.953 2.71368 171.417 3.92596 172.391 5.4569L172.392 5.45851C173.37 6.98337 173.865 8.7471 173.865 10.7666C173.865 12.3394 173.552 13.6993 172.942 14.8604C172.326 16.0196 171.481 16.9701 170.404 17.7172C169.33 18.4572 168.096 18.9869 166.696 19.3022L166.305 19.3901V19.79V20.2002V20.6792L166.784 20.6997C168.293 20.7645 169.704 21.1906 171.023 21.9824L171.025 21.9835C172.35 22.7711 173.428 23.8763 174.26 25.3113L174.261 25.313C175.08 26.7129 175.5 28.3994 175.5 30.3926C175.5 32.5343 174.971 34.4297 173.922 36.0937L173.921 36.0946C172.89 37.7382 171.355 39.0531 169.289 40.0304C167.235 41.002 164.677 41.5 161.595 41.5ZM152.064 34.7402V35.2402L163.638 24.3428L163.86 23.8947C163.86 23.8944 163.859 23.8941 163.858 23.8938C162.753 23.3471 161.455 23.084 159.981 23.084H152.564H152.064V23.584V34.7402ZM152.064 17.5752V18.0752H152.564H159.123C160.394 18.0752 161.542 17.8529 162.557 17.3953L162.56 17.3939C163.587 16.9226 164.409 16.252 165.009 15.379C165.634 14.4907 165.936 13.4373 165.936 12.2432C165.936 10.5919 165.344 9.22649 164.15 8.19494C162.967 7.15989 161.321 6.67773 159.286 6.67773H152.564H152.064V7.17773V17.5752ZM197.5 21C197.5 9.67816 206.678 0.5 218 0.5H281C292.322 0.5 301.5 9.67816 301.5 21C301.5 32.3218 292.322 41.5 281 41.5H218C206.678 41.5 197.5 32.3218 197.5 21Z" stroke="#C3FFF6"/>
<path id="Vector_2" d="M125.695 86.8373C126.648 84.7674 127.11 82.1326 127.11 78.959C127.11 75.8123 126.648 73.1977 125.695 71.1412C124.753 69.0802 123.337 67.5444 121.447 66.5595C119.573 65.5832 117.288 65.1084 114.616 65.1084H108.977H108.477V65.6084V92.3916V92.8916H108.977H114.595C117.268 92.8916 119.552 92.4168 121.426 91.4405L121.427 91.4398C123.33 90.4416 124.753 88.8995 125.695 86.8373ZM125.695 86.8373C125.695 86.8376 125.695 86.8378 125.695 86.838L125.241 86.6289L125.696 86.8366C125.696 86.8369 125.695 86.8371 125.695 86.8373ZM16.8112 64.8213H4.5V58.5H37.8676V64.8213H25.5563H25.0563V65.3213V99.5H17.3112V65.3213V64.8213H16.8112ZM80.5387 58.5H90.6138V99.5H83.0321V72.6631V72.1631H82.5321H82.1848H81.846L81.7204 72.4777L71.0167 99.2949H65.8511L55.1472 72.3758L55.0218 72.0605H54.6825H54.3352H53.8352V72.5605V99.5H46.2535V58.5H56.3286L67.7256 86.4078L67.8526 86.7188H68.1885H68.6788H69.0147L69.1417 86.4078L80.5387 58.5ZM114.963 99.5H100.629V58.5H115.086C119.228 58.5 122.764 59.3272 125.714 60.9599L125.715 60.9607C128.665 62.5803 130.931 64.9069 132.521 67.9521L132.522 67.9536C134.125 70.9978 134.937 74.6602 134.937 78.959C134.937 83.2716 134.124 86.948 132.521 90.0062L132.521 90.0077C130.931 93.0657 128.651 95.4059 125.675 97.0392L125.674 97.0396C122.711 98.6725 119.147 99.5 114.963 99.5ZM161.595 99.5H144.217V58.5H160.471C163.504 58.5 165.997 58.9517 167.971 59.8308C169.953 60.7137 171.417 61.926 172.391 63.4569L172.392 63.4585C173.37 64.9834 173.865 66.7471 173.865 68.7666C173.865 70.3394 173.552 71.6993 172.942 72.8604C172.326 74.0196 171.481 74.9701 170.404 75.7172C169.33 76.4572 168.096 76.9869 166.696 77.3022L166.305 77.3901V77.79V78.2002V78.6792L166.784 78.6997C168.293 78.7645 169.704 79.1906 171.023 79.9824L171.025 79.9835C172.35 80.7711 173.428 81.8763 174.26 83.3113L174.261 83.313C175.08 84.7129 175.5 86.3994 175.5 88.3926C175.5 90.5343 174.971 92.4297 173.922 94.0937L173.921 94.0946C172.89 95.7382 171.355 97.0531 169.289 98.0304C167.235 99.002 164.677 99.5 161.595 99.5ZM152.064 92.7402V93.2402L163.638 82.3428L163.86 81.8947C163.86 81.8944 163.859 81.8941 163.858 81.8938C162.753 81.3471 161.455 81.084 159.981 81.084H152.564H152.064V81.584V92.7402ZM152.064 75.5752V76.0752H152.564H159.123C160.394 76.0752 161.542 75.8529 162.557 75.3953L162.56 75.3939C163.587 74.9226 164.409 74.252 165.009 73.379C165.634 72.4907 165.936 71.4373 165.936 70.2432C165.936 68.5919 165.344 67.2265 164.15 66.1949C162.967 65.1599 161.321 64.6777 159.286 64.6777H152.564H152.064V65.1777V75.5752ZM197.5 79C197.5 67.6782 206.678 58.5 218 58.5H281C292.322 58.5 301.5 67.6782 301.5 79C301.5 90.3218 292.322 99.5 281 99.5H218C206.678 99.5 197.5 90.3218 197.5 79Z" stroke="#C3FFF6"/>
<g id="Vector_3" filter="url(#filter0_d_168_374)">
<path d="M4 35.3213V28H38.3676V35.3213H25.5563V70H16.8112V35.3213H4Z" fill="url(#paint0_linear_168_374)"/>
<path d="M45.7535 28H56.6645L68.1885 56.2188H68.6788L80.2028 28H91.1138V70H82.5321V42.6631H82.1848L71.3555 69.7949H65.5118L54.6825 42.5605H54.3352V70H45.7535V28Z" fill="url(#paint1_linear_168_374)"/>
<path d="M114.963 70H100.129V28H115.086C119.295 28 122.918 28.8408 125.956 30.5225C128.994 32.1904 131.33 34.5898 132.964 37.7207C134.613 40.8516 135.437 44.5977 135.437 48.959C135.437 53.334 134.613 57.0938 132.964 60.2383C131.33 63.3828 128.98 65.7959 125.915 67.4775C122.864 69.1592 119.213 70 114.963 70ZM108.977 62.3916H114.595C117.211 62.3916 119.411 61.9268 121.195 60.9971C122.993 60.0537 124.342 58.5977 125.241 56.6289C126.153 54.6465 126.61 52.0898 126.61 48.959C126.61 45.8555 126.153 43.3193 125.241 41.3506C124.342 39.3818 123 37.9326 121.216 37.0029C119.431 36.0732 117.231 35.6084 114.616 35.6084H108.977V62.3916Z" fill="url(#paint2_linear_168_374)"/>
<path d="M143.717 70V28H160.471C163.55 28 166.117 28.458 168.174 29.374C170.231 30.29 171.777 31.5615 172.813 33.1885C173.848 34.8018 174.365 36.6611 174.365 38.7666C174.365 40.4072 174.038 41.8496 173.385 43.0938C172.731 44.3242 171.832 45.3359 170.688 46.1289C169.557 46.9082 168.263 47.4619 166.805 47.79V48.2002C168.399 48.2686 169.891 48.7197 171.28 49.5537C172.683 50.3877 173.821 51.5566 174.692 53.0605C175.564 54.5508 176 56.3281 176 58.3926C176 60.6211 175.448 62.6104 174.345 64.3604C173.255 66.0967 171.641 67.4707 169.502 68.4824C167.364 69.4941 164.728 70 161.595 70H143.717ZM152.564 62.7402H159.777C162.242 62.7402 164.04 62.2686 165.171 61.3252C166.301 60.3682 166.867 59.0967 166.867 57.5107C166.867 56.3486 166.587 55.3232 166.029 54.4346C165.47 53.5459 164.674 52.8486 163.638 52.3428C162.617 51.8369 161.398 51.584 159.981 51.584H152.564V62.7402ZM152.564 45.5752H159.123C160.335 45.5752 161.411 45.3633 162.351 44.9395C163.305 44.502 164.054 43.8867 164.599 43.0938C165.157 42.3008 165.436 41.3506 165.436 40.2432C165.436 38.7256 164.898 37.502 163.822 36.5723C162.76 35.6426 161.248 35.1777 159.286 35.1777H152.564V45.5752Z" fill="url(#paint3_linear_168_374)"/>
<path d="M197 49C197 37.402 206.402 28 218 28H281C292.598 28 302 37.402 302 49C302 60.598 292.598 70 281 70H218C206.402 70 197 60.598 197 49Z" fill="url(#paint4_linear_168_374)"/>
</g>
</g>
<defs>
<filter id="filter0_d_168_374" x="0" y="28" width="306" height="50" filterUnits="userSpaceOnUse" color-interpolation-filters="sRGB">
<feFlood flood-opacity="0" result="BackgroundImageFix"/>
<feColorMatrix in="SourceAlpha" type="matrix" values="0 0 0 0 0 0 0 0 0 0 0 0 0 0 0 0 0 0 127 0" result="hardAlpha"/>
<feOffset dy="4"/>
<feGaussianBlur stdDeviation="2"/>
<feComposite in2="hardAlpha" operator="out"/>
<feColorMatrix type="matrix" values="0 0 0 0 0 0 0 0 0 0 0 0 0 0 0 0 0 0 0.25 0"/>
<feBlend mode="normal" in2="BackgroundImageFix" result="effect1_dropShadow_168_374"/>
<feBlend mode="normal" in="SourceGraphic" in2="effect1_dropShadow_168_374" result="shape"/>
</filter>
<linearGradient id="paint0_linear_168_374" x1="4" y1="30.5" x2="178.5" y2="49" gradientUnits="userSpaceOnUse">
<stop stop-color="#136055"/>
<stop offset="1" stop-color="#136055"/>
</linearGradient>
<linearGradient id="paint1_linear_168_374" x1="4" y1="30.5" x2="178.5" y2="49" gradientUnits="userSpaceOnUse">
<stop stop-color="#136055"/>
<stop offset="1" stop-color="#136055"/>
</linearGradient>
<linearGradient id="paint2_linear_168_374" x1="4" y1="30.5" x2="178.5" y2="49" gradientUnits="userSpaceOnUse">
<stop stop-color="#136055"/>
<stop offset="1" stop-color="#136055"/>
</linearGradient>
<linearGradient id="paint3_linear_168_374" x1="4" y1="30.5" x2="178.5" y2="49" gradientUnits="userSpaceOnUse">
<stop stop-color="#136055"/>
<stop offset="1" stop-color="#136055"/>
</linearGradient>
<linearGradient id="paint4_linear_168_374" x1="4" y1="30.5" x2="178.5" y2="49" gradientUnits="userSpaceOnUse">
<stop stop-color="#136055"/>
<stop offset="1" stop-color="#136055"/>
</linearGradient>
</defs>
</svg>
