<svg width="167" height="242" viewBox="0 0 167 242" fill="none" xmlns="http://www.w3.org/2000/svg">
<g id="proposer">
<rect id="image" x="2" y="2" width="162.238" height="238" stroke="#40B3A2" stroke-width="4"/>
<g id="icone_proposer">
<g id="livre">
<path id="Vector 46" d="M51.7291 63.0232V18.5244C68.0138 16.3468 79.3436 24.7179 82.9729 29.1757C87.1546 24.4813 99.3049 15.7788 114.453 18.5244V63.0232C110.351 60.9324 98.3108 58.455 82.9729 65.2718C70.0967 59.2124 56.7786 61.248 51.7291 63.0232Z" stroke="#40B3A2" stroke-width="4"/>
<path id="Vector 45" d="M48.1787 19.353L45.8118 20.7732V68.349H80.4877V69.6508H85.3399V68.349H119.897V20.7732L117.767 19.353V65.627H85.3399V63.7335H83.8014V29.2942H81.9078V63.7335H80.4877V65.627H48.1787V19.353Z" fill="#40B3A2"/>
</g>
<g id="Vector 43">
<path d="M75.6354 123.026L57.7649 134.979L64.1556 143.026L82.0262 131.073L75.6354 123.026Z" fill="#40B3A2"/>
<path d="M72.6767 122.671L58.1199 132.73L46.5218 119.949C32.4148 117.487 23.6018 105.352 20.9587 99.5927L18 57.1058C18.1183 56.3563 18.8758 54.8099 20.9587 54.6205C23.0416 54.4312 24.3513 56.7508 24.7458 57.9343C26.2607 63.8043 29.7164 78.2112 31.2549 84.6809C28.6986 87.7106 29.243 90.9928 29.8348 92.2551C33.188 95.9634 40.9831 103.711 45.3383 105.037C49.6935 106.362 47.942 104.248 46.5218 103.025L33.1485 93.6753C28.5093 85.817 34.5292 87.0084 38.1191 88.5863C44.7861 91.6634 58.688 98.1725 60.9603 99.5927C63.8006 101.368 66.996 106.575 67.4694 109.652C67.8481 112.114 71.0987 119.357 72.6767 122.671Z" fill="#40B3A2"/>
<path d="M33.3852 84.9176L27.1128 58.171C30.8052 56.3721 32.2017 60.104 32.4384 62.1948C33.4641 69.3746 35.4208 83.9708 35.0421 84.9176C34.6634 85.8644 33.7797 85.3121 33.3852 84.9176Z" fill="#40B3A2"/>
<path d="M38.4742 67.5204C38.0008 61.7451 35.6733 61.4058 34.5687 61.9581L36.5806 85.6277C37.5274 86.5744 38.2375 86.0222 38.4742 85.6277C38.6714 81.9983 38.9476 73.2958 38.4742 67.5204Z" fill="#40B3A2"/>
<path d="M40.3677 86.6928C39.705 85.178 40.0127 76.6727 40.2494 72.6094C40.7228 71.6626 41.1567 72.2149 41.3145 72.6094C41.4329 75.0158 41.6696 79.876 41.6696 80.0653C41.6696 80.302 41.1962 88.5863 40.3677 86.6928Z" fill="#40B3A2"/>
</g>
<g id="Vector 44">
<path d="M88.7599 123.001L106.928 134.969L100.431 143.026L82.2628 131.059L88.7599 123.001Z" fill="#40B3A2"/>
<path d="M91.7679 122.646L106.567 132.718L118.358 119.92C132.7 117.456 141.659 105.307 144.346 99.5399L147.354 57.0015C147.234 56.251 146.464 54.7027 144.346 54.5131C142.229 54.3235 140.897 56.646 140.496 57.8309C138.956 63.7081 135.443 78.1325 133.879 84.61C136.478 87.6434 135.924 90.9295 135.322 92.1935C131.914 95.9062 123.989 103.663 119.561 104.991C115.133 106.318 116.914 104.201 118.358 102.976L131.954 93.6153C136.67 85.7475 130.55 86.9403 126.9 88.5202C120.122 91.601 105.989 98.118 103.679 99.5399C100.792 101.317 97.5431 106.531 97.0618 109.612C96.6768 112.076 93.3721 119.328 91.7679 122.646Z" fill="#40B3A2"/>
<path d="M131.713 84.847L138.09 58.0679C134.336 56.2668 132.916 60.0032 132.676 62.0966C131.633 69.2851 129.644 83.899 130.029 84.847C130.414 85.7949 131.312 85.242 131.713 84.847Z" fill="#40B3A2"/>
<path d="M126.539 67.4287C127.021 61.6463 129.387 61.3067 130.51 61.8596L128.464 85.5579C127.502 86.5059 126.78 85.9529 126.539 85.5579C126.339 81.9242 126.058 73.2111 126.539 67.4287Z" fill="#40B3A2"/>
<path d="M124.614 86.6244C125.288 85.1077 124.975 76.5921 124.735 72.5239C124.253 71.5759 123.812 72.1289 123.652 72.5239C123.531 74.9332 123.291 79.7992 123.291 79.9888C123.291 80.2258 123.772 88.5202 124.614 86.6244Z" fill="#40B3A2"/>
</g>
</g>
<g id="text">
<path id="Me proposer" d="M28.1378 164.909H31.5511L35.1562 173.705H35.3097L38.9148 164.909H42.3281V178H39.6435V169.479H39.5348L36.147 177.936H34.3189L30.9311 169.447H30.8224V178H28.1378V164.909ZM49.0318 178.192C48.0218 178.192 47.1525 177.987 46.4238 177.578C45.6994 177.165 45.1412 176.581 44.7491 175.827C44.3571 175.068 44.161 174.171 44.161 173.136C44.161 172.126 44.3571 171.239 44.7491 170.477C45.1412 169.714 45.693 169.119 46.4047 168.693C47.1206 168.267 47.96 168.054 48.9231 168.054C49.5708 168.054 50.1738 168.158 50.7321 168.367C51.2946 168.572 51.7846 168.881 52.2022 169.294C52.6241 169.707 52.9522 170.227 53.1866 170.854C53.421 171.476 53.5382 172.205 53.5382 173.04V173.788H45.2477V172.1H50.975C50.975 171.708 50.8897 171.361 50.7193 171.058C50.5488 170.756 50.3123 170.519 50.0098 170.349C49.7115 170.174 49.3642 170.087 48.9679 170.087C48.5545 170.087 48.188 170.183 47.8684 170.374C47.5531 170.562 47.3059 170.815 47.127 171.135C46.948 171.45 46.8564 171.802 46.8521 172.19V173.794C46.8521 174.28 46.9416 174.7 47.1206 175.053C47.3038 175.407 47.5616 175.68 47.894 175.871C48.2264 176.063 48.6206 176.159 49.0765 176.159C49.3791 176.159 49.6561 176.116 49.9075 176.031C50.1589 175.946 50.3741 175.818 50.5531 175.648C50.7321 175.477 50.8684 175.268 50.9622 175.021L53.4806 175.188C53.3528 175.793 53.0907 176.321 52.6944 176.773C52.3024 177.22 51.7953 177.57 51.1731 177.821C50.5552 178.068 49.8414 178.192 49.0318 178.192ZM59.4812 181.682V168.182H62.1658V169.831H62.2873C62.4066 169.567 62.5792 169.298 62.805 169.026C63.0352 168.749 63.3335 168.518 63.6999 168.335C64.0707 168.148 64.5309 168.054 65.0806 168.054C65.7965 168.054 66.457 168.241 67.0621 168.616C67.6673 168.987 68.1509 169.548 68.5131 170.298C68.8754 171.043 69.0565 171.979 69.0565 173.104C69.0565 174.199 68.8796 175.124 68.5259 175.878C68.1765 176.628 67.6992 177.197 67.0941 177.585C66.4933 177.968 65.82 178.16 65.0742 178.16C64.5458 178.16 64.0962 178.072 63.7255 177.898C63.359 177.723 63.0586 177.504 62.8242 177.239C62.5898 176.971 62.4109 176.7 62.2873 176.428H62.2042V181.682H59.4812ZM62.1467 173.091C62.1467 173.675 62.2276 174.184 62.3896 174.619C62.5515 175.053 62.7859 175.392 63.0927 175.635C63.3995 175.874 63.7724 175.993 64.2113 175.993C64.6545 175.993 65.0295 175.871 65.3363 175.629C65.6431 175.381 65.8754 175.04 66.033 174.606C66.195 174.167 66.2759 173.662 66.2759 173.091C66.2759 172.524 66.1971 172.026 66.0394 171.595C65.8817 171.165 65.6495 170.828 65.3427 170.585C65.0359 170.342 64.6587 170.221 64.2113 170.221C63.7681 170.221 63.3931 170.338 63.0863 170.572C62.7837 170.807 62.5515 171.139 62.3896 171.57C62.2276 172 62.1467 172.507 62.1467 173.091ZM70.8718 178V168.182H73.5117V169.895H73.614C73.793 169.286 74.0934 168.825 74.5153 168.514C74.9371 168.199 75.4229 168.041 75.9727 168.041C76.109 168.041 76.256 168.05 76.4137 168.067C76.5714 168.084 76.7099 168.107 76.8292 168.137V170.553C76.7013 170.515 76.5245 170.481 76.2987 170.451C76.0728 170.421 75.8661 170.406 75.6786 170.406C75.2781 170.406 74.9201 170.494 74.6048 170.668C74.2937 170.839 74.0465 171.077 73.8633 171.384C73.6843 171.691 73.5948 172.045 73.5948 172.445V178H70.8718ZM82.2161 178.192C81.2232 178.192 80.3645 177.981 79.6401 177.559C78.9199 177.133 78.3638 176.54 77.9718 175.782C77.5797 175.019 77.3837 174.135 77.3837 173.129C77.3837 172.115 77.5797 171.229 77.9718 170.47C78.3638 169.707 78.9199 169.115 79.6401 168.693C80.3645 168.267 81.2232 168.054 82.2161 168.054C83.209 168.054 84.0655 168.267 84.7857 168.693C85.5101 169.115 86.0684 169.707 86.4604 170.47C86.8525 171.229 87.0485 172.115 87.0485 173.129C87.0485 174.135 86.8525 175.019 86.4604 175.782C86.0684 176.54 85.5101 177.133 84.7857 177.559C84.0655 177.981 83.209 178.192 82.2161 178.192ZM82.2289 176.082C82.6806 176.082 83.0577 175.955 83.3603 175.699C83.6628 175.439 83.8908 175.085 84.0442 174.638C84.2019 174.19 84.2807 173.681 84.2807 173.11C84.2807 172.539 84.2019 172.03 84.0442 171.582C83.8908 171.135 83.6628 170.781 83.3603 170.521C83.0577 170.261 82.6806 170.131 82.2289 170.131C81.7729 170.131 81.3894 170.261 81.0783 170.521C80.7715 170.781 80.5392 171.135 80.3816 171.582C80.2282 172.03 80.1515 172.539 80.1515 173.11C80.1515 173.681 80.2282 174.19 80.3816 174.638C80.5392 175.085 80.7715 175.439 81.0783 175.699C81.3894 175.955 81.7729 176.082 82.2289 176.082ZM88.8191 181.682V168.182H91.5037V169.831H91.6252C91.7445 169.567 91.9171 169.298 92.1429 169.026C92.373 168.749 92.6713 168.518 93.0378 168.335C93.4086 168.148 93.8688 168.054 94.4185 168.054C95.1344 168.054 95.7949 168.241 96.4 168.616C97.0051 168.987 97.4888 169.548 97.851 170.298C98.2132 171.043 98.3944 171.979 98.3944 173.104C98.3944 174.199 98.2175 175.124 97.8638 175.878C97.5144 176.628 97.0371 177.197 96.432 177.585C95.8311 177.968 95.1578 178.16 94.4121 178.16C93.8837 178.16 93.4341 178.072 93.0634 177.898C92.6969 177.723 92.3965 177.504 92.1621 177.239C91.9277 176.971 91.7488 176.7 91.6252 176.428H91.5421V181.682H88.8191ZM91.4846 173.091C91.4846 173.675 91.5655 174.184 91.7275 174.619C91.8894 175.053 92.1238 175.392 92.4306 175.635C92.7374 175.874 93.1103 175.993 93.5492 175.993C93.9924 175.993 94.3674 175.871 94.6742 175.629C94.981 175.381 95.2132 175.04 95.3709 174.606C95.5328 174.167 95.6138 173.662 95.6138 173.091C95.6138 172.524 95.535 172.026 95.3773 171.595C95.2196 171.165 94.9874 170.828 94.6806 170.585C94.3738 170.342 93.9966 170.221 93.5492 170.221C93.106 170.221 92.731 170.338 92.4242 170.572C92.1216 170.807 91.8894 171.139 91.7275 171.57C91.5655 172 91.4846 172.507 91.4846 173.091ZM104.646 178.192C103.653 178.192 102.794 177.981 102.07 177.559C101.35 177.133 100.794 176.54 100.401 175.782C100.009 175.019 99.8134 174.135 99.8134 173.129C99.8134 172.115 100.009 171.229 100.401 170.47C100.794 169.707 101.35 169.115 102.07 168.693C102.794 168.267 103.653 168.054 104.646 168.054C105.639 168.054 106.495 168.267 107.215 168.693C107.94 169.115 108.498 169.707 108.89 170.47C109.282 171.229 109.478 172.115 109.478 173.129C109.478 174.135 109.282 175.019 108.89 175.782C108.498 176.54 107.94 177.133 107.215 177.559C106.495 177.981 105.639 178.192 104.646 178.192ZM104.659 176.082C105.11 176.082 105.487 175.955 105.79 175.699C106.093 175.439 106.32 175.085 106.474 174.638C106.632 174.19 106.71 173.681 106.71 173.11C106.71 172.539 106.632 172.03 106.474 171.582C106.32 171.135 106.093 170.781 105.79 170.521C105.487 170.261 105.11 170.131 104.659 170.131C104.203 170.131 103.819 170.261 103.508 170.521C103.201 170.781 102.969 171.135 102.811 171.582C102.658 172.03 102.581 172.539 102.581 173.11C102.581 173.681 102.658 174.19 102.811 174.638C102.969 175.085 103.201 175.439 103.508 175.699C103.819 175.955 104.203 176.082 104.659 176.082ZM119.418 170.982L116.925 171.135C116.882 170.922 116.791 170.73 116.65 170.56C116.509 170.385 116.324 170.246 116.094 170.144C115.868 170.038 115.597 169.984 115.282 169.984C114.86 169.984 114.504 170.074 114.215 170.253C113.925 170.428 113.78 170.662 113.78 170.956C113.78 171.19 113.874 171.388 114.061 171.55C114.249 171.712 114.57 171.842 115.026 171.94L116.803 172.298C117.758 172.494 118.47 172.81 118.938 173.244C119.407 173.679 119.642 174.25 119.642 174.957C119.642 175.601 119.452 176.165 119.073 176.651C118.698 177.137 118.182 177.516 117.526 177.789C116.874 178.058 116.122 178.192 115.269 178.192C113.97 178.192 112.934 177.921 112.163 177.38C111.396 176.835 110.946 176.093 110.814 175.156L113.492 175.015C113.573 175.411 113.769 175.714 114.08 175.923C114.392 176.127 114.79 176.229 115.276 176.229C115.753 176.229 116.137 176.138 116.426 175.955C116.72 175.767 116.869 175.526 116.874 175.232C116.869 174.985 116.765 174.783 116.561 174.625C116.356 174.463 116.041 174.339 115.615 174.254L113.914 173.915C112.955 173.724 112.242 173.391 111.773 172.918C111.308 172.445 111.076 171.842 111.076 171.109C111.076 170.479 111.247 169.935 111.588 169.479C111.933 169.023 112.416 168.672 113.039 168.425C113.665 168.178 114.398 168.054 115.237 168.054C116.477 168.054 117.453 168.316 118.165 168.84C118.881 169.364 119.298 170.078 119.418 170.982ZM125.831 178.192C124.821 178.192 123.951 177.987 123.223 177.578C122.498 177.165 121.94 176.581 121.548 175.827C121.156 175.068 120.96 174.171 120.96 173.136C120.96 172.126 121.156 171.239 121.548 170.477C121.94 169.714 122.492 169.119 123.203 168.693C123.919 168.267 124.759 168.054 125.722 168.054C126.37 168.054 126.973 168.158 127.531 168.367C128.093 168.572 128.583 168.881 129.001 169.294C129.423 169.707 129.751 170.227 129.985 170.854C130.22 171.476 130.337 172.205 130.337 173.04V173.788H122.047V172.1H127.774C127.774 171.708 127.689 171.361 127.518 171.058C127.348 170.756 127.111 170.519 126.809 170.349C126.51 170.174 126.163 170.087 125.767 170.087C125.353 170.087 124.987 170.183 124.667 170.374C124.352 170.562 124.105 170.815 123.926 171.135C123.747 171.45 123.655 171.802 123.651 172.19V173.794C123.651 174.28 123.74 174.7 123.919 175.053C124.103 175.407 124.36 175.68 124.693 175.871C125.025 176.063 125.419 176.159 125.875 176.159C126.178 176.159 126.455 176.116 126.706 176.031C126.958 175.946 127.173 175.818 127.352 175.648C127.531 175.477 127.667 175.268 127.761 175.021L130.279 175.188C130.152 175.793 129.89 176.321 129.493 176.773C129.101 177.22 128.594 177.57 127.972 177.821C127.354 178.068 126.64 178.192 125.831 178.192ZM132.114 178V168.182H134.754V169.895H134.856C135.035 169.286 135.336 168.825 135.757 168.514C136.179 168.199 136.665 168.041 137.215 168.041C137.351 168.041 137.498 168.05 137.656 168.067C137.814 168.084 137.952 168.107 138.071 168.137V170.553C137.944 170.515 137.767 170.481 137.541 170.451C137.315 170.421 137.108 170.406 136.921 170.406C136.52 170.406 136.162 170.494 135.847 170.668C135.536 170.839 135.289 171.077 135.105 171.384C134.926 171.691 134.837 172.045 134.837 172.445V178H132.114Z" fill="#40B3A2"/>
<path id="Livre" d="M59.1378 225V211.909H61.9055V222.718H67.5178V225H59.1378ZM69.2995 225V215.182H72.0225V225H69.2995ZM70.6674 213.916C70.2626 213.916 69.9153 213.782 69.6255 213.513C69.34 213.241 69.1973 212.915 69.1973 212.536C69.1973 212.161 69.34 211.839 69.6255 211.57C69.9153 211.298 70.2626 211.161 70.6674 211.161C71.0723 211.161 71.4174 211.298 71.7029 211.57C71.9927 211.839 72.1376 212.161 72.1376 212.536C72.1376 212.915 71.9927 213.241 71.7029 213.513C71.4174 213.782 71.0723 213.916 70.6674 213.916ZM83.3572 215.182L79.9247 225H76.8565L73.424 215.182H76.3004L78.3395 222.207H78.4418L80.4744 215.182H83.3572ZM84.7507 225V215.182H87.3906V216.895H87.4929C87.6719 216.286 87.9723 215.825 88.3942 215.514C88.8161 215.199 89.3018 215.041 89.8516 215.041C89.9879 215.041 90.1349 215.05 90.2926 215.067C90.4503 215.084 90.5888 215.107 90.7081 215.137V217.553C90.5803 217.515 90.4034 217.481 90.1776 217.451C89.9517 217.421 89.745 217.406 89.5575 217.406C89.157 217.406 88.799 217.494 88.4837 217.668C88.1726 217.839 87.9254 218.077 87.7422 218.384C87.5632 218.691 87.4737 219.045 87.4737 219.445V225H84.7507ZM96.1333 225.192C95.1234 225.192 94.2541 224.987 93.5254 224.578C92.801 224.165 92.2427 223.581 91.8507 222.827C91.4586 222.068 91.2626 221.171 91.2626 220.136C91.2626 219.126 91.4586 218.239 91.8507 217.477C92.2427 216.714 92.7946 216.119 93.5062 215.693C94.2221 215.267 95.0616 215.054 96.0247 215.054C96.6724 215.054 97.2754 215.158 97.8336 215.367C98.3961 215.572 98.8862 215.881 99.3038 216.294C99.7257 216.707 100.054 217.227 100.288 217.854C100.523 218.476 100.64 219.205 100.64 220.04V220.788H92.3493V219.1H98.0765C98.0765 218.708 97.9913 218.361 97.8208 218.058C97.6504 217.756 97.4139 217.519 97.1113 217.349C96.813 217.174 96.4657 217.087 96.0694 217.087C95.6561 217.087 95.2896 217.183 94.97 217.374C94.6547 217.562 94.4075 217.815 94.2285 218.135C94.0495 218.45 93.9579 218.802 93.9537 219.19V220.794C93.9537 221.28 94.0431 221.7 94.2221 222.053C94.4054 222.407 94.6632 222.68 94.9956 222.871C95.3279 223.063 95.7221 223.159 96.1781 223.159C96.4806 223.159 96.7576 223.116 97.0091 223.031C97.2605 222.946 97.4757 222.818 97.6547 222.648C97.8336 222.477 97.97 222.268 98.0637 222.021L100.582 222.188C100.454 222.793 100.192 223.321 99.796 223.773C99.4039 224.22 98.8968 224.57 98.2747 224.821C97.6568 225.068 96.943 225.192 96.1333 225.192Z" fill="#40B3A2"/>
<path id="un" d="M75.3828 196.82V191.182H78.1058V201H75.4915V199.217H75.3892C75.1676 199.792 74.799 200.254 74.2834 200.604C73.772 200.953 73.1477 201.128 72.4105 201.128C71.7543 201.128 71.1768 200.979 70.6783 200.68C70.1797 200.382 69.7898 199.958 69.5085 199.408C69.2315 198.859 69.0909 198.2 69.0866 197.433V191.182H71.8097V196.947C71.8139 197.527 71.9695 197.985 72.2763 198.322C72.5831 198.658 72.9943 198.827 73.5099 198.827C73.8381 198.827 74.1449 198.752 74.4304 198.603C74.7159 198.45 74.946 198.224 75.1207 197.925C75.2997 197.627 75.3871 197.259 75.3828 196.82ZM83.0069 195.324V201H80.2839V191.182H82.8791V192.914H82.9941C83.2115 192.343 83.5758 191.891 84.0872 191.559C84.5985 191.222 85.2186 191.054 85.9473 191.054C86.6291 191.054 87.2235 191.203 87.7306 191.501C88.2377 191.8 88.6319 192.226 88.9132 192.78C89.1944 193.33 89.3351 193.986 89.3351 194.749V201H86.612V195.234C86.6163 194.634 86.4629 194.165 86.1518 193.828C85.8407 193.487 85.4125 193.317 84.867 193.317C84.5005 193.317 84.1767 193.396 83.8954 193.553C83.6184 193.711 83.4011 193.941 83.2434 194.244C83.09 194.542 83.0112 194.902 83.0069 195.324Z" fill="#40B3A2"/>
</g>
</g>
</svg>
